<svg xmlns="http://www.w3.org/2000/svg" xml:space="preserve" fill-rule="evenodd" stroke-linejoin="round" stroke-miterlimit="2" clip-rule="evenodd" viewBox="0 0 723 169">
  <path fill="none" d="M0 0h722.02v168H0z"/>
  <clipPath id="a">
    <path d="M0 0h722.02v168H0z"/>
  </clipPath>
  <g fill="currentColor" fill-rule="nonzero" clip-path="url(#a)">
    <path d="M47.87 151.71c-1.7.9-3.72 1.6-6.06 2.1-2.37.44-4.8.74-7.32.9-2.46.14-4.75.1-6.88-.08-2.12-.19-3.73-.5-4.82-.94-2.28-1.04-4.61-3-6.98-5.88a60.75 60.75 0 0 1-6.73-10.35 101.9 101.9 0 0 1-4.52-9.88 144.96 144.96 0 0 1-3.18-9.38A37.5 37.5 0 0 1 0 111.22c.63-1.7 1.55-3.59 2.77-5.67a58.18 58.18 0 0 1 4.47-6.36 43.35 43.35 0 0 1 5.81-6.08 34.36 34.36 0 0 1 6.91-4.8 24.35 24.35 0 0 1 5.38-1.95c2.16-.56 4.42-.95 6.76-1.16 2.34-.22 4.56-.26 6.65-.13 2.07.08 3.75.39 5.04.94 1.54.86 3.11 2.2 4.72 4.03a50 50 0 0 1 4.8 6.05 73.3 73.3 0 0 1 4.34 7.26c1.7 3.23 3.2 6.52 4.52 9.88a78.5 78.5 0 0 1 3.06 9.34 40.67 40.67 0 0 1 1.38 7.2 39.33 39.33 0 0 1-3.56 7.27 47.88 47.88 0 0 1-6.46 8.15 34.36 34.36 0 0 1-8.72 6.52Zm-1.6-7.4a26.06 26.06 0 0 0 4.41-2.95c1.5-1.3 2.8-2.6 3.92-3.9a18.25 18.25 0 0 0 2.22-3c-.18-2-.64-4.26-1.37-6.76a75.22 75.22 0 0 0-2.86-7.94 87.94 87.94 0 0 0-3.9-8.47 88.2 88.2 0 0 0-5.76-9.55 51.06 51.06 0 0 0-5.54-7.07 7.58 7.58 0 0 0-2.63-.46 35 35 0 0 0-4.64.04 30.6 30.6 0 0 0-5.05.7c-1.63.34-2.98.8-4.05 1.36-1.3.69-2.7 1.6-4.2 2.74a36.28 36.28 0 0 0-4.23 3.52 47.14 47.14 0 0 0-3.29 3.24c.21 1.91.7 4.15 1.46 6.71a75.4 75.4 0 0 0 2.81 7.85 102.85 102.85 0 0 0 9.74 17.98c2.15 3 4.34 5.39 6.58 7.18.8.3 1.93.5 3.36.62 1.5.09 3.08.08 4.77 0 1.65-.15 3.24-.37 4.75-.65 1.48-.35 2.65-.74 3.5-1.18ZM97.03 129.51c-.53.22-1.55.52-3.05.9l-5.13 1.12c-1.87.33-3.65.62-5.33.88-1.63.23-2.85.37-3.66.42a3.6 3.6 0 0 1-.26-1.45c.04-.57.11-1 .2-1.31l2.08-1.25a3.17 3.17 0 0 0 1.5-2.46c.19-1.1-.3-3.08-1.43-5.93L62.58 71.72a3.62 3.62 0 0 0-.8-1.23c-.34-.35-.81-.5-1.42-.47l-7.72.6a10.7 10.7 0 0 1-.23-1.88c.03-.63.06-1.06.11-1.28.51-.62 1.35-1.37 2.52-2.24 1.14-.94 2.35-1.8 3.62-2.58 1.31-.87 2.38-1.47 3.22-1.8a6.62 6.62 0 0 1 5.41.12 7.16 7.16 0 0 1 3.92 4.13l21.18 53.25c.5 1.25.77 2.38.83 3.4.11.98.15 1.69.12 2.11l7.54-2.07c.2.13.43.38.71.75.32.29.59.7.8 1.23-.1.6-.48 1.3-1.12 2.1-.65.81-1.37 1.58-2.18 2.32a7.89 7.89 0 0 1-2.06 1.33ZM121.53 120.8c-.48.16-1.51.4-3.09.74l-5.18.86c-1.95.25-3.77.47-5.46.64-1.7.17-2.96.26-3.77.27a4.1 4.1 0 0 1 .08-2.76l2.2-1.26a3.58 3.58 0 0 0 1.4-1.29c.33-.59.46-1.4.37-2.46-.11-1.11-.5-2.64-1.15-4.58L99.3 88.61a2.54 2.54 0 0 0-.83-1.24 1.75 1.75 0 0 0-1.31-.57l-6.04-.17c-.13-.76-.2-1.45-.2-2.06.06-.63.17-1.07.35-1.34.79-.87 1.97-1.88 3.54-3.03a15.99 15.99 0 0 1 4.32-2.49 6.63 6.63 0 0 1 5.4.4 7.16 7.16 0 0 1 3.7 4.3l9.2 27c.44 1.27.7 2.4.76 3.4.07.98.04 1.7-.08 2.15l7.64-1.7c.19.15.41.4.68.8.3.3.56.75.76 1.35a5.78 5.78 0 0 1-1.26 1.95c-.62.76-1.35 1.48-2.2 2.17a8.1 8.1 0 0 1-2.2 1.26ZM96.02 69.13c-.43.15-1.1.07-2-.22-.88-.38-1.79-.85-2.72-1.41a22.12 22.12 0 0 1-2.6-1.96 5.26 5.26 0 0 1-1.34-1.87c-.17-.49-.05-1.14.35-1.95.38-.87.89-1.75 1.53-2.65.7-.92 1.4-1.73 2.1-2.44a5.89 5.89 0 0 1 1.97-1.38c.49-.17 1.13-.05 1.95.35.85.32 1.72.8 2.62 1.44.95.62 1.76 1.3 2.4 2.02.72.7 1.18 1.35 1.39 1.96.14.42.06 1.06-.26 1.92-.34.79-.83 1.63-1.47 2.52-.58.88-1.26 1.68-2.02 2.42a5.92 5.92 0 0 1-1.9 1.25ZM154.71 110.87c-1.54.42-3.22.6-5.04.5a37.83 37.83 0 0 1-5.33-.9 36.67 36.67 0 0 1-4.6-1.52 22.32 22.32 0 0 1-2.91-1.48l-11.4-23.44a32.8 32.8 0 0 0-2.07-3.5 4.37 4.37 0 0 0-3.18-2.12l-5.02-.5a5.1 5.1 0 0 1-.02-1.88c.03-.6.11-1.03.24-1.26.52-.54 1.25-1.15 2.2-1.8.98-.75 2-1.4 3.04-1.95a10.8 10.8 0 0 1 2.46-1.18c2.16-.6 4.17-.3 6.03.91 1.87 1.21 3.36 3.12 4.49 5.73l10.45 24c.41.28 1.05.67 1.92 1.16.91.4 1.95.82 3.13 1.22 1.24.39 2.42.59 3.55.6.75-1.86 1.3-4.07 1.65-6.63.4-2.63.62-5.42.66-8.35.05-2.94-.02-5.84-.22-8.7-.22-2.94-.5-5.65-.87-8.14-.67-.28-1.57-.52-2.7-.74-1.14-.28-2.36-.5-3.67-.68a34.37 34.37 0 0 0-3.53-.5c-1.1-.17-1.96-.26-2.57-.3a7.01 7.01 0 0 1-.12-1.85c.1-.62.2-1.05.34-1.3.6-.49 1.45-1 2.57-1.5a34.6 34.6 0 0 1 3.54-1.59c1.33-.5 2.51-.9 3.56-1.18.74-.2 1.73-.12 2.97.27 1.22.32 2.45.81 3.7 1.46 1.28.57 2.38 1.2 3.3 1.87.98.66 1.53 1.2 1.65 1.64a32.4 32.4 0 0 1 1 7.19 76.3 76.3 0 0 1-.18 9.02c-.18 3.17-.57 6.3-1.18 9.4a71.43 71.43 0 0 1-2 8.52c-.8 2.62-1.7 4.8-2.68 6.53-1 1.67-2.05 2.66-3.16 2.97ZM194.15 101.45c-.5.1-1.55.23-3.16.39l-5.25.25c-1.96.03-3.79.04-5.5.01a44.4 44.4 0 0 1-3.76-.16c-.1-.44-.1-.93-.03-1.47.15-.56.28-.98.42-1.27l2.33-1a3.58 3.58 0 0 0 1.53-1.11c.4-.55.63-1.35.66-2.4.02-1.12-.19-2.68-.62-4.69l-5-23.08c-.13-.56-.35-1-.68-1.32-.29-.4-.7-.64-1.24-.72l-5.98-.86a13.4 13.4 0 0 1 .04-2.07c.13-.62.3-1.05.5-1.3.89-.77 2.17-1.64 3.86-2.6a15.96 15.96 0 0 1 4.58-1.97 6.62 6.62 0 0 1 5.33 1 7.16 7.16 0 0 1 3.18 4.72l6.04 27.87c.28 1.31.4 2.46.36 3.45-.05 1-.16 1.7-.33 2.14l7.79-.8c.16.16.35.44.57.85.27.34.48.82.61 1.44-.22.5-.7 1.1-1.48 1.8-.7.67-1.51 1.3-2.43 1.9-.87.52-1.65.85-2.34 1ZM174.74 47.2c-.44.1-1.1-.06-1.97-.46a23.48 23.48 0 0 1-2.53-1.71 22 22 0 0 1-2.35-2.24c-.63-.78-1-1.45-1.13-2.02-.1-.5.08-1.13.57-1.89a14.5 14.5 0 0 1 1.83-2.46c.8-.83 1.6-1.55 2.37-2.18a5.88 5.88 0 0 1 2.11-1.15c.5-.1 1.14.09 1.9.58.8.41 1.62.99 2.43 1.73.88.72 1.6 1.48 2.17 2.28.63.78 1 1.48 1.14 2.1.1.45-.06 1.07-.48 1.88-.42.75-1 1.53-1.75 2.34-.67.8-1.43 1.53-2.28 2.17-.8.56-1.47.9-2.03 1.03ZM223.92 95.85a16.2 16.2 0 0 1-5.36-.06 44.06 44.06 0 0 1-5.61-1.48 46.55 46.55 0 0 1-4.73-2.02 12.32 12.32 0 0 1-2.51-1.61c-.92-.82-1.83-2.35-2.73-4.6a43.52 43.52 0 0 1-1.99-7.65 88.07 88.07 0 0 1-.94-7.24 73.14 73.14 0 0 1 .14-11.22c.78-.72 1.85-1.68 3.2-2.89a45.45 45.45 0 0 1 4.73-3.72 38.33 38.33 0 0 1 5.56-3.38 19.1 19.1 0 0 1 5.78-2.06c1.01-.17 2.37-.04 4.06.38 1.7.43 3.32 1 4.87 1.7 1.6.64 2.75 1.3 3.44 1.95.4.45.85 1.35 1.34 2.7.48 1.28.95 2.7 1.4 4.24.46 1.54.8 2.94 1.01 4.2a15 15 0 0 1-1.96 3.36c-.8 1.04-1.6 2-2.44 2.85-.84.79-1.6 1.47-2.28 2.04-.71.38-1.96.89-3.73 1.51a103.85 103.85 0 0 1-14.03 3.36c.47 2.07.98 3.9 1.51 5.5.52 1.53.9 2.44 1.15 2.72.22.16.72.46 1.51.91l2.85 1.27c1.05.47 2.1.84 3.11 1.12 1.01.22 1.8.28 2.37.19.76-.13 1.75-.4 2.98-.8l3.97-1.26c1.41-.5 2.7-.98 3.85-1.44l2.74-1.05c.36.2.7.53 1.05 1 .34.45.59 1 .76 1.61a23.83 23.83 0 0 1-3.54 3.82 31.29 31.29 0 0 1-5.1 3.79 19.52 19.52 0 0 1-6.43 2.26ZM216.3 69.4a52.57 52.57 0 0 0 7.55-1.97c1.17-.4 2.01-.8 2.53-1.2-.14-.83-.37-1.76-.68-2.82-.3-1.05-.6-2.04-.9-2.96a10 10 0 0 0-.7-1.92c-.13-.3-.57-.65-1.35-1.04-.78-.39-1.65-.7-2.6-.92-.89-.3-1.65-.4-2.28-.3-.57.1-1.43.38-2.59.84-1.16.45-2.3.94-3.45 1.46-1.15.52-1.98.98-2.49 1.4-.07.72-.11 1.64-.12 2.74l.2 3.47c.07 1.16.2 2.3.4 3.44.68.21 1.63.28 2.85.2 1.29-.09 2.5-.23 3.63-.42ZM261.11 90.46c-.57.08-1.66.11-3.27.12l-5.35-.22c-1.95-.15-3.8-.3-5.57-.47a42.3 42.3 0 0 1-3.83-.5c-.06-.5-.03-1 .1-1.47.2-.54.38-.94.54-1.22l2.5-.8a3.58 3.58 0 0 0 1.63-.97c.4-.5.65-1.27.78-2.32.19-1.11.15-2.7-.1-4.72l-2.87-23.44a2.54 2.54 0 0 0-.56-1.39c-.25-.42-.63-.7-1.17-.82l-5.88-1.4c-.03-.84.04-1.53.24-2.07.18-.6.35-1 .52-1.22 1.01-.7 2.4-1.46 4.17-2.25a15.3 15.3 0 0 1 4.75-1.55 6.3 6.3 0 0 1 5.22 1.58c1.44 1.24 2.3 3.04 2.6 5.39l.07.57c.49-.7 1.06-1.55 1.72-2.53.7-1.06 1.45-2.12 2.22-3.18a14.38 14.38 0 0 1 2.39-2.61 4.38 4.38 0 0 1 2.36-1.26c.82-.1 1.72.11 2.69.64.96.52 1.89 1.22 2.77 2.08.87.8 1.58 1.6 2.13 2.44.61.77.94 1.34.99 1.72.06.5-.03 1.36-.27 2.55-.25 1.12-.59 2.3-1.02 3.5a12.97 12.97 0 0 1-1.32 2.68c-.76.1-1.56.1-2.41 0-.8-.15-1.42-.27-1.88-.34a50 50 0 0 0-1.57-2.52c-.49-.84-.96-1.52-1.41-2.05-.4-.6-.72-.88-.98-.84-.25.03-.67.3-1.25.83a57 57 0 0 0-1.74 1.56c-.64.6-1.2 1.18-1.72 1.76-.45.5-.73.87-.83 1.07l2.66 21.73a11 11 0 0 1-.05 3.49c-.14.98-.28 1.67-.42 2.08l8.2-.14c.15.18.32.48.5.9.24.43.4.9.46 1.4a5.01 5.01 0 0 1-1.72 1.76 19.9 19.9 0 0 1-2.7 1.69c-.9.43-1.68.69-2.32.76ZM327.18 84.92a24.9 24.9 0 0 1-6.47-.64 49.14 49.14 0 0 1-7.13-2.34 73.98 73.98 0 0 1-6.2-2.97c-1.78-1-3.08-1.93-3.89-2.78-1.62-1.78-2.9-4.47-3.86-8.08a61.3 61.3 0 0 1-1.76-12.31c-.18-3.7-.17-7.4.04-11.06.26-3.73.64-7.05 1.14-9.95.5-2.98 1-5.21 1.5-6.7a30.64 30.64 0 0 1 5.08-4.2 65.16 65.16 0 0 1 6.82-3.9c2.5-1.2 5.02-2.2 7.54-2.96a30.6 30.6 0 0 1 7.15-1.31 34.9 34.9 0 0 1 7.71.48c2.59.45 4.99 1.1 7.21 1.95a25.2 25.2 0 0 1 5.62 2.8c.06 3.97-.12 7.47-.54 10.5-.37 2.97-.71 5.17-1.03 6.6-1.66.07-3 .04-4.04-.1-1.03-.2-1.78-.39-2.24-.56l-2.8-11.97c-.78-.41-1.9-.77-3.32-1.09-1.36-.32-2.75-.6-4.17-.85a16.5 16.5 0 0 0-3.57-.3c-1.28.06-2.84.3-4.68.7a40.2 40.2 0 0 0-5.31 1.42 27.64 27.64 0 0 0-4.53 1.76c-.55 1.76-1.02 4-1.4 6.7a99.03 99.03 0 0 0-.83 8.5c-.1 2.96-.1 5.87.05 8.75.14 2.87.4 5.65.8 8.32.38 2.6.85 4.96 1.4 7.04a27.14 27.14 0 0 0 1.98 5.1c.54.55 1.43 1.18 2.69 1.88 1.31.7 2.75 1.37 4.32 2 1.57.56 3.1 1.03 4.59 1.4a15 15 0 0 0 4.16.48c1.08-.06 2.23-.15 3.44-.27 1.28-.19 2.45-.38 3.53-.56 1.14-.25 2.06-.48 2.75-.71l4.34-15.4a10.6 10.6 0 0 1 3.58.4c1.16.26 2.04.57 2.64.93.07 1.4.08 3.07.05 5-.03 1.92-.1 3.81-.2 5.67-.04 1.86-.12 3.5-.24 4.92a53 53 0 0 1-4.75 3.02 41.46 41.46 0 0 1-7.44 3.06c-2.9.9-6.15 1.45-9.73 1.63ZM371.42 84.24a10.64 10.64 0 0 1-4.3-1.2 32.8 32.8 0 0 1-4.59-2.83 15.81 15.81 0 0 1-2.66-2.42c-.38-.65-.72-1.74-1.03-3.28a26.97 26.97 0 0 1 0-9.5c.13-.39.52-.9 1.17-1.53.7-.7 1.55-1.39 2.51-2.08.97-.76 1.94-1.43 2.9-2a8.02 8.02 0 0 1 2.41-1.02 7.34 7.34 0 0 1 2.4-.27l3.75-.15 2.5-.17c.9-.12 1.76-.2 2.6-.26a75.42 75.42 0 0 0 5.77-.71l.1-10.66a21.86 21.86 0 0 0-5.26-1.97c-2.05-.54-3.97-.81-5.76-.83-.45 0-.93.02-1.44.08-.45 0-.83.03-1.15.09l-3.05 7.75c-.32.18-.84.4-1.55.65-.64.19-1.5.3-2.6.36a24.72 24.72 0 0 1-2.26-3.57 17.25 17.25 0 0 1-1.77-5.4c1.29-1.2 2.77-2.24 4.44-3.12a33.63 33.63 0 0 1 11.08-3.73c1.86-.37 3.6-.54 5.2-.53 1.14.01 2.52.38 4.1 1.1 1.67.65 3.29 1.5 4.88 2.54 1.6.98 2.92 2.01 4 3.11 1.08 1.04 1.62 1.97 1.6 2.8l-.3 31.59 6.7.83c.2.2.39.55.58 1.06.18.51.27 1.1.27 1.73a6.1 6.1 0 0 1-2.13 1.7c-.97.51-2.03.92-3.18 1.23-1.1.3-2 .46-2.7.45a9.35 9.35 0 0 1-3.83-.8 11.34 11.34 0 0 1-2.95-2.15c-.83-.9-1.49-1.77-2-2.6a59.83 59.83 0 0 1-4.72 2.44c-1.8.88-3.6 1.66-5.4 2.35-1.74.62-3.18.93-4.33.92Zm3.44-7.75c.7.01 1.66-.14 2.88-.45 1.22-.3 2.47-.68 3.76-1.11l3.18-1.22.1-11.62c-1.21.38-2.52.68-3.94.93l-4.22.53c-1.6.18-3.14.39-4.62.63a7.1 7.1 0 0 0-3.37 1.3c-.01 1.03 0 2.31.06 3.85.05 1.47.26 2.75.63 3.85.38.57 1.14 1.29 2.28 2.13a5.95 5.95 0 0 0 3.26 1.18ZM422.23 85.28c-.58-.03-1.66-.18-3.25-.46l-5.22-1.15c-1.9-.49-3.7-.97-5.4-1.45-1.7-.47-2.94-.86-3.7-1.16.04-.5.16-.98.37-1.42.29-.5.53-.87.74-1.11l2.61-.34c.71-.1 1.3-.32 1.77-.68.47-.42.86-1.13 1.17-2.14.38-1.07.62-2.63.73-4.67l1.28-23.59a2.54 2.54 0 0 0-.3-1.45c-.17-.46-.5-.8-1.01-1.02l-5.54-2.41c.1-.83.3-1.5.59-2 .28-.55.53-.92.73-1.1a26.5 26.5 0 0 1 4.5-1.5 15.3 15.3 0 0 1 4.94-.69 6.3 6.3 0 0 1 4.87 2.48c1.2 1.47 1.74 3.4 1.61 5.76l-.03.57c.6-.6 1.32-1.34 2.14-2.2.88-.9 1.8-1.82 2.74-2.73.95-.9 1.88-1.63 2.8-2.15.94-.6 1.79-.87 2.55-.83a4.5 4.5 0 0 1 2.54 1.1c.86.69 1.65 1.53 2.36 2.53a13.3 13.3 0 0 1 1.68 2.79c.46.85.69 1.47.67 1.86a9.1 9.1 0 0 1-.71 2.46 29.34 29.34 0 0 1-1.62 3.28 12.92 12.92 0 0 1-1.77 2.4c-.76-.04-1.56-.18-2.38-.42a46.8 46.8 0 0 0-1.79-.67 50.2 50.2 0 0 0-1.1-2.75c-.33-.92-.68-1.67-1.03-2.27-.28-.65-.56-.99-.81-1-.26-.02-.72.18-1.38.6-.6.35-1.26.76-1.99 1.23-.73.48-1.4.95-2 1.43a6.4 6.4 0 0 0-1 .91l-1.19 21.86c-.07 1.34-.3 2.48-.66 3.42-.31.95-.57 1.6-.78 1.98l8.1 1.3c.11.2.22.53.33.98.17.46.24.94.2 1.45a5 5 0 0 1-2 1.43c-.91.47-1.9.86-2.94 1.2-.98.26-1.78.38-2.42.34ZM460.14 88.14a14.6 14.6 0 0 1-4.96-1.48 31.3 31.3 0 0 1-4.64-2.8 37.44 37.44 0 0 1-3.62-3.17c-.93-1-1.56-1.77-1.89-2.32-.66-1.03-1.13-2.75-1.4-5.16-.19-2.47-.14-5.13.16-8 .25-2.48.6-4.86 1.02-7.13a83.29 83.29 0 0 1 3.14-10.77c.96-.55 2.26-1.22 3.88-2.01a36.84 36.84 0 0 1 5.55-2.33 44.03 44.03 0 0 1 6.26-1.76c2.17-.42 4.24-.53 6.21-.32.9.09 1.92.45 3.08 1.09 1.16.57 2.23 1.13 3.2 1.68l2.11-20.43c.06-.51.01-1-.14-1.47-.14-.46-.52-.82-1.14-1.08l-7.02-3.04c.14-.7.33-1.29.57-1.78.32-.54.58-.9.79-1.07.74-.31 1.83-.59 3.27-.82 1.45-.3 2.91-.5 4.4-.61 1.5-.17 2.73-.2 3.68-.1a6.63 6.63 0 0 1 4.75 2.61 7.16 7.16 0 0 1 1.56 5.47l-6.42 62.07 6.6 1.46c.17.2.32.6.46 1.2.13.53.17 1.08.11 1.66-.5.52-1.3 1.02-2.37 1.49-1 .4-2.07.72-3.18.92a9.2 9.2 0 0 1-2.73.2 9.35 9.35 0 0 1-3.74-1.16c-1.08-.69-2.03-1.5-2.84-2.41a12.8 12.8 0 0 1-1.64-2.78c-1.3.77-2.7 1.52-4.19 2.27-1.49.68-2.99 1.2-4.5 1.56a13.1 13.1 0 0 1-4.38.32Zm2.89-7.42c.64.06 1.48.02 2.52-.13 1.05-.15 2.2-.35 3.44-.6l3.47-.9 2.77-26.74a43.58 43.58 0 0 0-3.3-1.6 54.23 54.23 0 0 0-3.33-1.5 9.22 9.22 0 0 0-2.62-.75c-.58-.06-1.45-.02-2.62.11-1.17.08-2.37.2-3.61.4-1.18.2-2.07.4-2.67.6-.26.67-.56 1.64-.88 2.9-.32 1.25-.62 2.6-.9 4.05a91.3 91.3 0 0 0-.97 10.32c-.01 2 .03 3.7.14 5.13a10 10 0 0 0 .41 2.56c.1.26.48.72 1.12 1.37l2.2 1.96c.9.74 1.76 1.37 2.6 1.91.85.54 1.6.84 2.23.9ZM508.03 94.16c-.5-.08-1.53-.33-3.09-.75l-5-1.62a181.6 181.6 0 0 1-5.15-1.93 43.97 43.97 0 0 1-3.47-1.48c.07-.44.24-.9.5-1.38.33-.47.6-.82.83-1.04l2.54-.11c.72-.02 1.33-.2 1.83-.5a4.23 4.23 0 0 0 1.46-2.02c.41-1.04.77-2.57 1.07-4.6l3.47-23.36c.08-.57.03-1.06-.17-1.48a1.75 1.75 0 0 0-.9-1.1l-5.3-2.93c.24-.74.5-1.38.78-1.92.33-.53.64-.87.92-1.03 1.1-.42 2.61-.77 4.53-1.07 2-.35 3.66-.43 4.99-.23 1.96.29 3.5 1.23 4.62 2.82a7.16 7.16 0 0 1 1.32 5.53l-4.19 28.2c-.2 1.34-.5 2.46-.89 3.37-.4.91-.74 1.54-1.05 1.88l7.56 2c.1.2.18.54.24 1 .13.41.15.93.06 1.56-.38.4-1.05.79-2.02 1.16-.9.38-1.88.7-2.95.92-1 .18-1.84.21-2.54.1Zm.98-57.6c-.44-.07-1-.44-1.67-1.12-.6-.74-1.2-1.57-1.77-2.5a22.12 22.12 0 0 1-1.4-2.92 5.26 5.26 0 0 1-.35-2.29c.08-.5.48-1.03 1.2-1.56.74-.6 1.6-1.16 2.58-1.66 1.04-.5 2.04-.9 3-1.2 1.01-.3 1.8-.42 2.37-.33.5.07 1.03.47 1.57 1.2.61.67 1.17 1.5 1.67 2.48.56.99.97 1.96 1.22 2.9.31.95.42 1.74.33 2.38-.07.44-.44.97-1.11 1.58-.67.55-1.49 1.07-2.47 1.57-.91.52-1.88.92-2.9 1.22-.94.25-1.7.33-2.27.25ZM534.02 98.6c-.5-.1-1.49-.4-2.95-.9l-4.82-1.85c-1.68-.73-3.3-1.44-4.86-2.15-1.49-.7-2.59-1.24-3.29-1.64.1-.5.3-.96.57-1.36.35-.45.65-.78.89-1l2.54.03c1.1.02 2-.35 2.67-1.13.76-.83 1.44-2.74 2.04-5.76l4.67-23.15c.1-.5.1-.99 0-1.47-.1-.47-.41-.86-.94-1.16l-5.32-3.23c.22-.8.51-1.43.87-1.88.36-.52.66-.85.88-1 1.18-.35 2.74-.62 4.67-.82a15.3 15.3 0 0 1 5 .03 6.66 6.66 0 0 1 4.4 2.94 6.63 6.63 0 0 1 1.2 5.23c1.57-.72 3.19-1.44 4.83-2.15a34.04 34.04 0 0 1 4.86-1.77 7.92 7.92 0 0 1 3.8-.4c1.45.29 2.96.88 4.54 1.79 1.64.92 3.19 2.01 4.63 3.28a14.58 14.58 0 0 1 3.34 3.81c.8 1.27 1.08 2.44.86 3.5l-5.21 25.88a13.5 13.5 0 0 1-1.06 3.31c-.44.9-.82 1.5-1.15 1.83l7.45 2.38c.09.22.15.55.19 1.02.1.48.1.97 0 1.47-.42.44-1.12.82-2.1 1.14-.91.34-1.9.6-2.99.77-1 .12-1.85.12-2.54-.02-.5-.1-1.49-.4-2.96-.89l-4.81-1.85c-1.75-.75-3.36-1.46-4.86-2.16-1.49-.69-2.59-1.24-3.29-1.64.1-.5.3-.95.57-1.35.29-.47.55-.8.79-1.02l2.33.08c.72.01 1.33-.12 1.85-.41.53-.35.99-1.01 1.38-1.98.46-1.01.9-2.56 1.32-4.63l4.04-20.04a2.9 2.9 0 0 0-.47-2.05 8.84 8.84 0 0 0-1.82-2.13 15.15 15.15 0 0 0-2.2-1.72 5.08 5.08 0 0 0-1.5-.8 9.25 9.25 0 0 0-2.15-.03c-.93.07-1.94.2-3.02.37-1.08.17-2.12.32-3.12.45l-2.22.33-4.8 23.81a11.93 11.93 0 0 1-1.17 3.39 9.39 9.39 0 0 1-1.2 2.01l7.08 2.3c.1.22.15.56.2 1.03.1.47.09.96-.01 1.46a5.1 5.1 0 0 1-2.1 1.15c-.97.32-1.97.58-2.99.77-1 .12-1.85.11-2.54-.03ZM584.32 110.34a10.65 10.65 0 0 1-3.85-2.28 32.55 32.55 0 0 1-3.7-3.92 15.85 15.85 0 0 1-1.94-3.03c-.2-.72-.24-1.86-.14-3.43a26.99 26.99 0 0 1 2.47-9.18c.23-.34.73-.72 1.52-1.17.87-.49 1.86-.94 2.97-1.36 1.14-.48 2.24-.87 3.32-1.17a8.06 8.06 0 0 1 2.6-.37c.54-.05 1.34.08 2.38.37l3.66.82 2.46.49c.9.12 1.75.26 2.57.42a72.65 72.65 0 0 0 5.75.81l2.87-10.27a21.86 21.86 0 0 0-4.57-3.26 23.77 23.77 0 0 0-5.34-2.3c-.43-.11-.9-.21-1.41-.29-.43-.12-.8-.2-1.14-.22l-4.95 6.7c-.36.1-.92.17-1.66.23-.67 0-1.54-.1-2.6-.33-.41-.91-.83-2.26-1.27-4.04a17.25 17.25 0 0 1-.3-5.67 20.41 20.41 0 0 1 5.1-1.86 33.56 33.56 0 0 1 11.67-.73c1.89.13 3.6.4 5.14.84 1.11.3 2.34 1.02 3.7 2.13a27.11 27.11 0 0 1 4.04 3.72c1.28 1.35 2.3 2.7 3.06 4.04.77 1.28 1.04 2.32.82 3.12l-8.5 30.42 6.27 2.55c.13.23.22.63.27 1.17a4.9 4.9 0 0 1-.2 1.74c-.52.45-1.35.82-2.5 1.1-1.05.23-2.18.35-3.38.35a9.98 9.98 0 0 1-2.72-.26 9.36 9.36 0 0 1-3.49-1.78 11.37 11.37 0 0 1-2.3-2.83c-.56-1.09-.97-2.1-1.24-3.04-1.44.4-3.17.78-5.2 1.14-1.97.38-3.91.67-5.83.86-1.83.16-3.3.08-4.41-.23Zm5.32-6.59c.68.19 1.65.3 2.9.31 1.26.02 2.57-.01 3.92-.1l3.39-.35 3.13-11.19c-1.28.05-2.63 0-4.05-.13l-4.23-.58c-1.59-.25-3.13-.45-4.62-.6a7.1 7.1 0 0 0-3.6.4 97.3 97.3 0 0 0-.93 3.72 13.32 13.32 0 0 0-.4 3.88c.22.66.77 1.54 1.66 2.65a5.95 5.95 0 0 0 2.83 1.99ZM634.6 125.96a12.3 12.3 0 0 1-4.13-2.65 24.43 24.43 0 0 1-5.58-8.42c-.49-1.27-.63-2.18-.43-2.72l9.94-26.82c.17-.48.25-.97.23-1.45-.03-.49-.28-.92-.75-1.3l-4.49-3.92a7.5 7.5 0 0 1 1.06-1.76c.44-.45.81-.72 1.12-.8 1.16-.2 2.71-.23 4.65-.13 2.03.07 3.7.35 5.02.83 1.8.67 3.08 1.9 3.85 3.69.84 1.8.88 3.7.15 5.68l-10 27c.42.71.9 1.54 1.43 2.48.54.95 1.1 1.84 1.68 2.67.66.8 1.3 1.3 1.9 1.52.6.23 1.49.39 2.68.49 1.25.12 2.58.2 4 .25 1.42.05 2.75.03 4.01-.05l9.47-25.57c.18-.48.26-.96.23-1.45-.02-.48-.27-.92-.75-1.3l-5.59-4.52c.33-.7.67-1.26 1.03-1.67.44-.45.77-.7 1-.76.8-.11 1.85-.13 3.19-.05 1.35.03 2.74.17 4.15.41 1.49.22 2.65.48 3.5.79a6.63 6.63 0 0 1 3.94 3.71c.83 1.81.88 3.7.15 5.69l-11.67 31.5 6.12 3.1a5.83 5.83 0 0 1-.25 2.87 5.7 5.7 0 0 1-2.36.86c-1.08.15-2.23.2-3.44.16a9.04 9.04 0 0 1-7.25-3.91 10.6 10.6 0 0 1-2-4.83c-1.45.41-3.17.73-5.16.95-2 .22-3.94.31-5.85.3a15.9 15.9 0 0 1-4.8-.87ZM672.91 140.9a5.52 5.52 0 0 1-1.85-1.89 30.66 30.66 0 0 1-1.77-3.34c-.5-1.17-.89-2.26-1.18-3.26-.2-1.03-.22-1.71-.05-2.06.48-.97 1.51-1.9 3.08-2.76 1.6-.92 3.47-1.74 5.62-2.47a97.64 97.64 0 0 1 6.9-2.05l6.73-1.7-.6-10.26a23.08 23.08 0 0 0-.44-3.64 11.85 11.85 0 0 0-.87-3.22 8.79 8.79 0 0 0-2.03-2.82l-2.42-2.48c.37-.6.76-1.1 1.16-1.47.48-.4.85-.65 1.11-.73.63-.12 1.47-.1 2.53.07 1.1.11 2.15.28 3.18.5a8.6 8.6 0 0 1 2.28.6 7.65 7.65 0 0 1 4.1 4.7c.7 2.06 1.09 4.43 1.19 7.12l.52 11.72c1.88-.5 3.68-1.03 5.4-1.6a68.8 68.8 0 0 0 4.54-1.83c1.29-.58 2.2-1.05 2.75-1.43-.3-.71-.75-1.51-1.39-2.4-.58-.85-1.2-1.7-1.86-2.52a16.05 16.05 0 0 0-1.6-1.97c.35-.55.72-1 1.12-1.38a4.6 4.6 0 0 1 1.07-.86c.57 0 1.33.12 2.28.38.97.2 1.94.46 2.92.8 1 .28 1.76.55 2.28.8.46.23.97.77 1.55 1.63.6.8 1.12 1.7 1.56 2.7.52.97.88 1.9 1.08 2.79.26.91.3 1.57.1 1.97a7.32 7.32 0 0 1-2.91 2.85 26.54 26.54 0 0 1-5.23 2.34c-1.97.66-4.1 1.29-6.4 1.87l-6.64 1.53.83 12.83c.18 2.66.63 4.63 1.35 5.92a6.87 6.87 0 0 0 2.8 2.78l1.72.85c.09.26.12.63.1 1.12 0 .43-.12.87-.34 1.33-.63.55-1.59.96-2.88 1.26a14.3 14.3 0 0 1-3.86.44 8.72 8.72 0 0 1-3.35-.8c-1.26-.63-2.44-1.92-3.54-3.9-1.03-1.94-1.67-4.68-1.92-8.23l-.91-13.73c-1.92.7-3.85 1.41-5.79 2.17a75.02 75.02 0 0 0-5.01 2.12c-1.38.6-2.35 1.13-2.92 1.56.26.48.68 1.15 1.26 2.01.66.83 1.35 1.67 2.07 2.53.72.85 1.23 1.54 1.55 2.05 0 .29-.05.76-.17 1.42-.1.66-.3 1.27-.59 1.85-.57 0-1.39-.08-2.45-.25a45.6 45.6 0 0 1-3.22-.63c-1.06-.31-1.9-.62-2.54-.94Z"/>
  </g>
</svg>
