<svg xmlns="http://www.w3.org/2000/svg" xml:space="preserve" fill-rule="evenodd" stroke-linejoin="round" stroke-miterlimit="2" clip-rule="evenodd" viewBox="0 0 816 52">
  <path fill="none" d="M0 0h815.99v51.84H0z"/>
  <g fill="currentColor" fill-rule="nonzero">
    <path d="M9.8 5.93a80.1 80.1 0 0 0-2.12 4.14 28.56 28.56 0 0 0-1.83 5.25 34.3 34.3 0 0 0-.68 7.33c0 5.03.68 9 2.02 11.91 1.35 2.91 3.24 4.99 5.68 6.22a19.58 19.58 0 0 0 8.76 1.85h10.96v2.22c-.83.15-1.9.27-3.17.37a117.75 117.75 0 0 1-7.4.6c-1.04.09-1.77.14-2.22.14-4.1 0-7.63-.84-10.58-2.52a17.42 17.42 0 0 1-6.83-7.32C.85 32.92.08 29.06.08 24.57c0-3.05.25-5.87.77-8.43a23.19 23.19 0 0 1 2.4-6.51c.7-.9 1.44-1.68 2.21-2.37a49.9 49.9 0 0 1 2.7-2.22l1.63.89Zm4.13 36.33V6.66c0-.44.13-1.13.38-2.07.26-.98.64-2.02 1.16-3.1h2.02v37.74c0 .39-.16.86-.48 1.4-.32.5-.7 1.04-1.16 1.63h-1.92ZM32.2 11.92h-2.89l-.87-7.62c-.5-.1-1.34-.2-2.5-.3-1.09-.15-2.24-.24-3.46-.3a34.8 34.8 0 0 0-2.89-.14c-.5 0-1.09.05-1.73.15-.57.1-1.22.27-1.92.51l-.48-2.73c.83-.3 1.57-.55 2.21-.74.64-.2 1.15-.3 1.54-.3.83 0 2.08.07 3.75.22 1.73.1 3.53.22 5.39.37 1.86.1 3.4.22 4.62.37l-.77 10.51ZM48.8 45.22a9.5 9.5 0 0 1-2.38-.36 20.05 20.05 0 0 1-5.05-2.27 8.47 8.47 0 0 1-1.56-1.23c-.69-.98-1.2-2.3-1.5-3.94-.3-1.67-.45-3.46-.45-5.36 0-1.49.08-2.96.24-4.42.16-1.46.36-2.8.6-4.02.26-1.22.54-2.2.83-2.94.53-.42 1.21-.87 2.03-1.35.83-.48 1.74-.93 2.75-1.35 1-.45 2.04-.81 3.1-1.08 1.09-.26 2.15-.4 3.18-.4.64 0 1.38.12 2.23.36.87.24 1.75.57 2.62 1 .88.4 1.67.82 2.39 1.27.72.45 1.23.89 1.55 1.31.35.72.62 1.55.84 2.5.2.94.35 1.93.43 2.99.11 1.03.16 2.08.16 3.14a45.6 45.6 0 0 1-.87 8.87 20.68 20.68 0 0 1-.88 3.1c-.6.59-1.44 1.21-2.5 1.87a18.58 18.58 0 0 1-3.58 1.63 12.9 12.9 0 0 1-4.18.68Zm.84-2.35c.76 0 1.57-.12 2.42-.35.88-.24 1.67-.52 2.39-.84a8.3 8.3 0 0 0 1.59-.83c.32-.75.58-1.68.8-2.79a42.67 42.67 0 0 0 .44-12.53c-.2-1.46-.43-2.69-.72-3.7a11.55 11.55 0 0 0-2.86-1.79c-.7-.34-1.41-.62-2.15-.83a6.93 6.93 0 0 0-1.95-.32c-.7 0-1.47.1-2.35.32a22.15 22.15 0 0 0-4.73 1.59c-.3.74-.56 1.66-.8 2.74a33.09 33.09 0 0 0-.48 3.5c-.1 1.22-.15 2.47-.15 3.74 0 1.8.12 3.51.35 5.13.24 1.62.6 2.9 1.08 3.86.26.32.67.66 1.23 1.03a18.88 18.88 0 0 0 4.06 1.8c.71.18 1.32.27 1.83.27ZM71.03 45.22c-.2 0-.6-.04-1.15-.12l-1.87-.28c-.69-.13-1.34-.26-1.95-.4-.58-.13-1.03-.25-1.35-.35a.9.9 0 0 1 .12-.48c.08-.16.16-.28.24-.36l1.03-.12c.5-.08.88-.22 1.12-.44.26-.23.43-.6.51-1.1.08-.51.12-1.2.12-2.08V22c0-.85.07-1.52.2-2.03.16-.53.32-.86.48-.99H65.1a2.78 2.78 0 0 1-.24-.28c-.05-.1-.1-.25-.12-.44.13-.15.34-.31.64-.47.29-.16.58-.3.87-.44.32-.13.54-.2.68-.2h4.5l14.35 22.9-.2-1.58c-.05-.7-.08-1.67-.08-2.94v-13.4c0-.86.07-1.53.2-2.04.16-.53.32-.86.48-1h-3.42a6.2 6.2 0 0 0-.2-.27.96.96 0 0 1-.16-.44c.13-.16.34-.33.64-.51.29-.19.58-.35.87-.48.32-.16.54-.24.68-.24h6.04c.1.1.21.27.32.48.1.18.17.4.2.67l-1.63.56c-.5.13-.88.33-1.12.6-.23.26-.4.63-.51 1.11-.08.45-.12 1.1-.12 1.95V38.9c0 1.24.04 2.37.12 3.38.1.98.2 1.68.28 2.1-.22.16-.5.3-.84.44-.32.1-.65.2-1 .28-.34.05-.64.1-.9.12l-13.3-21.2a20.9 20.9 0 0 1-1.23-2.3c-.23-.64-.38-1.08-.43-1.32h-.2c-.05.19-.1.48-.12.88-.03.37-.04.87-.04 1.5v17.63c0 .6-.07 1.12-.2 1.55-.13.42-.27.71-.4.87l4.38.44.16.32c.08.13.12.3.12.48-.3.24-.64.45-1.04.63-.37.16-.75.3-1.15.4-.37.08-.7.12-.96.12ZM102.73 45.22c-.55 0-1.22-.08-1.99-.24a31.6 31.6 0 0 1-2.3-.67c-.77-.3-1.5-.6-2.19-.92a12 12 0 0 1-1.63-1c.03-.82.08-1.66.16-2.54.1-.9.22-1.74.36-2.5.16-.8.29-1.44.4-1.91a4.13 4.13 0 0 1 1.66.31l.8 5.5a14.6 14.6 0 0 0 5.77 1.46c.47 0 1.04-.06 1.7-.2a14.35 14.35 0 0 0 3.43-1.15c.24-.48.42-1.11.55-1.9a13.6 13.6 0 0 0-.04-5.34 480.1 480.1 0 0 0-6.44-2.23c-1.24-.42-2.44-.84-3.58-1.27-1.14-.45-2.1-.87-2.9-1.27-.77-.42-1.25-.82-1.43-1.2l-.12-.95a7.63 7.63 0 0 1-.08-1.15c0-1.17.1-2.33.28-3.5.2-1.17.45-2.08.71-2.75a17.54 17.54 0 0 1 3.9-2.19c.82-.34 1.63-.6 2.43-.79.8-.21 1.5-.32 2.1-.32.9 0 1.83.12 2.79.36.95.21 1.85.5 2.7.88a10 10 0 0 1 2.15 1.19c-.03.53-.08 1.1-.16 1.71-.05.61-.13 1.22-.24 1.83-.1.58-.2 1.13-.31 1.63-.11.48-.22.89-.32 1.23-.35 0-.68-.04-1-.12-.29-.1-.5-.2-.63-.27l-.76-5.02c-.5-.2-1.03-.38-1.6-.51-.52-.16-1.08-.28-1.66-.36a10.47 10.47 0 0 0-4.81.28c-.53.1-1.05.24-1.56.4a8.63 8.63 0 0 0-.6 2.38 22.47 22.47 0 0 0-.15 3.94l.08.83c.63.3 1.51.64 2.62 1.04 1.14.37 2.36.78 3.66 1.23 1.33.43 2.59.86 3.78 1.31 1.22.43 2.23.85 3.02 1.28.83.42 1.28.82 1.36 1.19.1.58.17 1.1.2 1.55a17.05 17.05 0 0 1-.16 4.42c-.14.84-.38 1.73-.72 2.66-.32.32-.8.69-1.47 1.11a22.83 22.83 0 0 1-5.05 2.2c-.93.23-1.83.35-2.7.35ZM128.7 45.22c-.18 0-.5-.03-.95-.08a80.7 80.7 0 0 1-1.47-.2 51.93 51.93 0 0 1-3.18-.6c-.45-.1-.79-.2-1-.27a.9.9 0 0 1 .12-.48c.08-.16.16-.28.24-.36l1.03-.12c.5-.08.88-.22 1.12-.44.26-.23.44-.6.52-1.07a10 10 0 0 0 .15-1.99V21.28c0-.59.04-1.08.12-1.47.11-.43.22-.7.32-.84h-6.8l-.75 6.28c-.11.08-.31.16-.6.24-.3.06-.64.08-1.04.08-.1-.37-.22-.87-.35-1.5-.14-.67-.27-1.43-.4-2.28-.1-.87-.2-1.83-.28-2.86.4-.37.9-.73 1.51-1.07.61-.35 1.17-.59 1.67-.72h16.3c.65.19 1.26.45 1.84.8a8.2 8.2 0 0 1 1.39.99c-.1 1.43-.27 2.74-.48 3.94-.2 1.2-.4 2.1-.6 2.7-.36 0-.7-.02-.99-.08a2.7 2.7 0 0 1-.63-.24l-.68-6.04c-.42-.05-1.07-.12-1.95-.2-.87-.08-1.75-.12-2.62-.12-.61 0-1.06.12-1.36.36-.26.24-.43.56-.51.95a8.6 8.6 0 0 0-.08 1.24V40.4a5.4 5.4 0 0 1-.2 1.59c-.13.42-.27.73-.4.91l3.7.36c.05.05.1.16.16.32.05.13.08.3.08.48-.4.31-.89.6-1.47.83-.56.21-1.05.32-1.48.32ZM147 45.22c-.18 0-.5-.03-.95-.08a80.7 80.7 0 0 1-1.48-.2 52.6 52.6 0 0 1-3.18-.6c-.45-.1-.78-.2-1-.27 0-.19.05-.35.13-.48.08-.16.16-.28.24-.36l1.03-.12c.48-.08.83-.22 1.07-.44.27-.2.44-.55.52-1.03.1-.48.16-1.15.16-2.03V22.03a8.63 8.63 0 0 1 .36-2.54c.1-.27.21-.44.32-.52h-3.42a2.66 2.66 0 0 1-.24-.28.83.83 0 0 1-.12-.44c.13-.15.34-.31.63-.47l.88-.44c.32-.13.54-.2.68-.2h12.72a8.2 8.2 0 0 1 1.67.64 11.69 11.69 0 0 1 3.03 1.9c.23.5.4 1.1.51 1.76.13.66.2 1.3.2 1.95 0 .87-.08 1.76-.24 2.66-.13.87-.33 1.66-.6 2.35a4.12 4.12 0 0 1-.9 1.59c-.27.24-.69.49-1.24.75a13.97 13.97 0 0 1-3.58 1.23v.17a4.49 4.49 0 0 1 1.27 1.67l2.7 4.89c.43.8.84 1.5 1.24 2.15.4.63.86 1.14 1.4 1.5.52.38 1.18.58 1.98.6l.76.04.2.36c.07.16.11.35.11.56-.29.26-.65.5-1.07.71-.4.19-.8.34-1.23.44-.43.1-.84.16-1.24.16-.98 0-1.83-.37-2.54-1.11a11.29 11.29 0 0 1-1.95-2.9l-3.38-7.17c-.27-.58-.56-1-.88-1.27a2.16 2.16 0 0 0-1.3-.44h-3.67v8.08c0 .63-.06 1.16-.2 1.59-.13.42-.28.73-.43.91l3.74.36c.05.08.1.2.15.36.06.13.08.28.08.44a5.21 5.21 0 0 1-2.94 1.15Zm-.4-14.76 3.66-.08a55.44 55.44 0 0 0 5.85-.43c.47-.64.83-1.5 1.07-2.59.24-1.09.36-2.2.36-3.34 0-.9-.1-1.75-.32-2.55a4.31 4.31 0 0 0-.91-1.94 24.46 24.46 0 0 0-4.5-.56c-.85-.05-1.67-.08-2.46-.08-.98 0-1.69.25-2.11.76-.43.47-.64 1.23-.64 2.26v8.55ZM177.63 45.22c-.83 0-1.75-.15-2.79-.44a19.27 19.27 0 0 1-5.37-2.5c-.66-.48-1.03-.88-1.11-1.2V22.03c0-.87.06-1.56.2-2.07.16-.53.3-.86.43-.99h-3.42a3.67 3.67 0 0 1-.23-.28 1.25 1.25 0 0 1-.16-.44c.13-.16.34-.31.63-.47l.92-.44c.32-.13.54-.2.67-.2h6.88c.08.08.18.23.28.44.14.21.2.45.2.71l-1.55.52c-.42.16-.77.34-1.03.56-.27.21-.47.54-.6 1-.13.42-.2 1.05-.2 1.9v17.66c.27.34.69.69 1.27 1.03.59.35 1.22.67 1.91.96.72.26 1.42.49 2.11.67a7.9 7.9 0 0 0 1.71.24c.72 0 1.53-.12 2.43-.36.9-.23 1.73-.51 2.5-.83.8-.35 1.36-.66 1.67-.95V22.03c0-.85.07-1.54.2-2.07.16-.53.3-.86.44-.99h-3.38a2.27 2.27 0 0 1-.2-.24c-.08-.13-.13-.3-.16-.48.13-.16.35-.31.64-.47a4.5 4.5 0 0 1 1.59-.64h6c.08.08.18.23.28.44.14.21.2.45.2.71l-1.63.56c-.42.13-.77.3-1.03.52a1.9 1.9 0 0 0-.52 1.03c-.1.48-.16 1.18-.16 2.11v18.53c-.32.4-.8.84-1.43 1.32-.61.47-1.34.94-2.19 1.39-.85.42-1.79.78-2.82 1.07-1.01.27-2.07.4-3.18.4ZM204.99 45.22c-.7 0-1.47-.12-2.35-.36-.87-.24-1.76-.55-2.66-.95-.88-.4-1.69-.81-2.43-1.24a6.53 6.53 0 0 1-1.59-1.3 9.5 9.5 0 0 1-1.47-3.7 26.58 26.58 0 0 1-.52-5.46c0-1.61.08-3.18.24-4.69.16-1.51.37-2.86.64-4.06.26-1.22.53-2.14.8-2.78.52-.45 1.2-.91 2.02-1.4.85-.47 1.78-.92 2.79-1.34 1-.43 2.02-.77 3.06-1.04 1.03-.26 1.99-.4 2.86-.4.9 0 1.84.12 2.83.36.98.24 1.9.56 2.74.96.87.37 1.59.75 2.15 1.15a38.53 38.53 0 0 1-.92 6.4 5.38 5.38 0 0 1-1.07-.16c-.3-.07-.5-.15-.64-.23l-.63-4.74a15.53 15.53 0 0 0-3.46-1.11 7.4 7.4 0 0 0-1.68-.24c-.6 0-1.36.1-2.26.32a24.38 24.38 0 0 0-4.81 1.59c-.32.77-.59 1.71-.8 2.82a32.6 32.6 0 0 0-.48 3.58 46.44 46.44 0 0 0 0 7.4c.14 1.11.3 2.12.52 3.02.21.88.46 1.6.76 2.15.29.32.71.66 1.27 1.04a18.88 18.88 0 0 0 4.06 1.75c.71.18 1.35.27 1.9.27.56 0 1.13-.04 1.71-.12.61-.07 1.18-.17 1.71-.27l1.36-.36 1.75-5.73c.34 0 .67.07 1 .2.34.1.57.2.7.28-.02.63-.07 1.32-.15 2.07-.05.71-.12 1.41-.2 2.1-.08.67-.17 1.25-.28 1.75-.5.32-1.18.68-2.03 1.08a14.93 14.93 0 0 1-6.44 1.4ZM229.8 45.22c-.18 0-.5-.03-.95-.08a81.9 81.9 0 0 1-1.47-.2 51.93 51.93 0 0 1-3.18-.6c-.45-.1-.78-.2-1-.27a.9.9 0 0 1 .12-.48c.08-.16.16-.28.24-.36l1.04-.12c.5-.08.87-.22 1.11-.44.27-.23.44-.6.52-1.07a10 10 0 0 0 .16-1.99V21.28c0-.59.04-1.08.12-1.47.1-.43.2-.7.31-.84h-6.8l-.75 6.28c-.1.08-.3.16-.6.24-.3.06-.64.08-1.03.08-.11-.37-.23-.87-.36-1.5-.13-.67-.27-1.43-.4-2.28-.1-.87-.2-1.83-.28-2.86.4-.37.9-.73 1.51-1.07a7.18 7.18 0 0 1 1.67-.72h16.31a8 8 0 0 1 1.83.8c.58.34 1.05.67 1.4.99-.11 1.43-.27 2.74-.49 3.94-.2 1.2-.4 2.1-.6 2.7-.36 0-.7-.02-.99-.08-.29-.08-.5-.16-.63-.24l-.68-6.04c-.42-.05-1.07-.12-1.95-.2-.87-.08-1.75-.12-2.62-.12-.61 0-1.06.12-1.35.36-.27.24-.44.56-.52.95-.05.37-.08.79-.08 1.24V40.4a5.4 5.4 0 0 1-.2 1.59c-.13.42-.27.73-.4.91l3.7.36c.05.05.1.16.16.32.05.13.08.3.08.48-.4.31-.89.6-1.47.83-.56.21-1.05.32-1.47.32ZM248.1 45.22c-.18 0-.5-.03-.95-.08a81.9 81.9 0 0 1-1.47-.2 52.69 52.69 0 0 1-3.18-.6c-.46-.1-.79-.2-1-.27 0-.19.04-.35.12-.48.08-.16.16-.28.24-.36l1.03-.12c.48-.08.84-.22 1.08-.44.26-.2.43-.55.51-1.03.1-.48.16-1.15.16-2.03V21.95a6 6 0 0 1 .28-2.18c.19-.43.3-.7.36-.8h-3.38a1.02 1.02 0 0 1-.24-.24c-.05-.13-.1-.3-.12-.48.13-.15.34-.31.64-.47.29-.16.58-.3.87-.44.32-.13.54-.2.68-.2h6.84c.1.1.21.27.32.48.1.18.17.4.2.67l-1.6.52c-.4.16-.73.35-.99.56-.27.21-.46.54-.6 1-.13.42-.2 1.05-.2 1.9v18.14c0 .63-.06 1.16-.2 1.59-.13.42-.27.73-.43.91l3.74.36c.05.08.1.2.16.36.05.13.08.28.08.44-.4.32-.88.6-1.44.83a4.3 4.3 0 0 1-1.5.32ZM265.88 45.22a9.5 9.5 0 0 1-2.39-.36 20.07 20.07 0 0 1-5.05-2.27 8.54 8.54 0 0 1-1.55-1.23 10.2 10.2 0 0 1-1.5-3.94c-.3-1.67-.45-3.46-.45-5.36a48.11 48.11 0 0 1 .84-8.43c.26-1.23.54-2.2.83-2.95.53-.42 1.21-.87 2.03-1.35.82-.48 1.74-.93 2.75-1.35 1-.45 2.04-.81 3.1-1.08 1.09-.26 2.15-.4 3.18-.4.64 0 1.38.12 2.23.36.87.24 1.75.57 2.62 1 .88.4 1.67.82 2.39 1.27.72.45 1.23.89 1.55 1.31.35.72.62 1.55.84 2.5.2.94.35 1.93.43 2.99.1 1.03.16 2.08.16 3.14a45.6 45.6 0 0 1-.87 8.87 20.68 20.68 0 0 1-.88 3.1c-.6.59-1.44 1.21-2.5 1.87a18.58 18.58 0 0 1-3.58 1.63 12.9 12.9 0 0 1-4.18.68Zm.84-2.35c.76 0 1.57-.12 2.42-.35.88-.24 1.67-.52 2.39-.84.74-.32 1.27-.6 1.59-.83.32-.75.58-1.68.8-2.79a42.67 42.67 0 0 0 .44-12.53c-.2-1.46-.43-2.69-.72-3.7a11.5 11.5 0 0 0-2.86-1.79 12.4 12.4 0 0 0-2.16-.83 6.92 6.92 0 0 0-1.94-.32c-.7 0-1.48.1-2.35.32a22.22 22.22 0 0 0-4.73 1.59c-.3.74-.56 1.66-.8 2.74a32.84 32.84 0 0 0-.48 3.5c-.1 1.22-.16 2.47-.16 3.74 0 1.8.12 3.51.36 5.13s.6 2.9 1.08 3.86c.26.32.67.66 1.23 1.03a18.88 18.88 0 0 0 4.06 1.8 7.5 7.5 0 0 0 1.83.27ZM288.11 45.22c-.2 0-.6-.04-1.15-.12l-1.87-.28c-.69-.13-1.34-.26-1.95-.4-.58-.13-1.03-.25-1.35-.35 0-.19.04-.35.12-.48.08-.16.16-.28.24-.36l1.03-.12c.5-.08.88-.22 1.12-.44.26-.23.43-.6.51-1.1.08-.51.12-1.2.12-2.08V22c0-.85.07-1.52.2-2.03.16-.53.32-.86.48-.99h-3.42a2.66 2.66 0 0 1-.24-.28c-.05-.1-.1-.25-.12-.44.13-.15.34-.31.64-.47.29-.16.58-.3.87-.44.32-.13.54-.2.68-.2h4.5l14.35 22.9-.2-1.58c-.05-.7-.08-1.67-.08-2.94v-13.4c0-.86.07-1.53.2-2.04.16-.53.32-.86.48-1h-3.42a7.13 7.13 0 0 0-.2-.27.93.93 0 0 1-.16-.44c.13-.16.34-.33.63-.51.3-.19.59-.35.88-.48.32-.16.54-.24.68-.24h6.04c.1.1.21.27.32.48.1.18.17.4.2.67l-1.63.56c-.5.13-.88.33-1.12.6-.23.26-.4.63-.51 1.11-.08.45-.12 1.1-.12 1.95V38.9c0 1.24.04 2.37.12 3.38.1.98.2 1.68.28 2.1-.22.16-.5.3-.84.44-.32.1-.65.2-1 .28-.34.05-.64.1-.9.12l-13.3-21.2c-.55-.93-.96-1.7-1.23-2.3a12.1 12.1 0 0 1-.43-1.32h-.2c-.06.19-.1.48-.12.88-.03.37-.04.87-.04 1.5v17.63c0 .6-.07 1.12-.2 1.55a2.7 2.7 0 0 1-.4.87l4.38.44.16.32c.08.13.12.3.12.48-.3.24-.64.45-1.04.63-.37.16-.75.3-1.15.4-.37.08-.7.12-.96.12ZM338.45 45.22c-.69 0-1.57-.03-2.66-.08a468 468 0 0 0-3.46-.16 167.2 167.2 0 0 1-9.55-.91c0-.19.04-.36.12-.52.08-.16.16-.28.24-.36l1.04-.12a2.4 2.4 0 0 0 1.07-.4c.26-.2.44-.55.52-1.03.1-.48.16-1.15.16-2.03V22.03a8.63 8.63 0 0 1 .35-2.54c.1-.27.22-.44.32-.52h-3.42a2.66 2.66 0 0 1-.24-.28.83.83 0 0 1-.12-.44c.13-.15.35-.31.64-.47l.87-.44c.32-.13.55-.2.68-.2h14.08c.45.1.91.27 1.4.48.5.21.99.45 1.46.71.48.27.92.56 1.32.88.42.29.78.6 1.07.91a14.5 14.5 0 0 1 1.47 4.62 32.91 32.91 0 0 1 .12 9.9 26.26 26.26 0 0 1-.8 4.02c-.31 1.19-.68 2.2-1.1 3.02a12.42 12.42 0 0 1-2.63 2.15c-.5.32-1.01.6-1.51.83-.5.24-.99.43-1.44.56Zm-10.06-2.39h11.45c.5-.4.96-1 1.36-1.79.4-.82.73-1.77 1-2.86.26-1.09.46-2.25.59-3.5a41.9 41.9 0 0 0 .04-7.52c-.1-1.19-.28-2.28-.52-3.26-.21-.98-.5-1.83-.87-2.54a5.14 5.14 0 0 0-1.36-1.75c-.47-.14-1.2-.26-2.18-.36-.98-.1-2.07-.19-3.26-.24a50.58 50.58 0 0 0-3.46-.12c-.88 0-1.46.25-1.75.76a4.5 4.5 0 0 0-.44 2.26v18.46c0 .58-.07 1.1-.2 1.55-.13.42-.27.73-.4.91ZM366.9 45.22a79.94 79.94 0 0 1-5.18-.2 639.82 639.82 0 0 1-9.5-.68c-.85-.07-1.56-.17-2.11-.27 0-.19.04-.36.12-.52.08-.16.16-.28.24-.36l1.03-.12a2.4 2.4 0 0 0 1.07-.4c.27-.2.44-.55.52-1.03.1-.48.16-1.15.16-2.03V22.03a8.63 8.63 0 0 1 .36-2.54c.1-.27.2-.44.32-.52h-3.43a6.3 6.3 0 0 0-.2-.28.93.93 0 0 1-.15-.44c.13-.15.34-.31.63-.47l.88-.44c.32-.13.54-.2.67-.2h14.52c.61.19 1.2.45 1.8.8.6.31 1.08.65 1.42.99-.08 1.4-.24 2.7-.47 3.86a20.75 20.75 0 0 1-.6 2.54 3.78 3.78 0 0 1-1.6-.31l-.87-5.57c-.58-.1-1.32-.2-2.22-.28a73.7 73.7 0 0 0-5.65-.28c-.66 0-1.17.12-1.51.36-.32.24-.55.58-.68 1.03-.1.45-.16 1-.16 1.63v7.84c1.2-.03 2.3-.07 3.3-.12 1.04-.05 2-.1 2.9-.16l2.51-.24.32.32a16.36 16.36 0 0 1-.44 2.1h-8.59v8.72c0 .58-.07 1.1-.2 1.55a3.4 3.4 0 0 1-.4.91h11.1l1.87-6.2c.37 0 .7.07 1 .2.29.1.47.2.55.28a56.78 56.78 0 0 1-.4 6.52c-.2.18-.5.41-.87.68-.37.23-.74.45-1.11.63-.38.16-.7.25-.96.28ZM398.85 45.22c-.79 0-1.72-.11-2.8-.34a44.55 44.55 0 0 1-3.25-.95 47.79 47.79 0 0 1-3.08-1.29c-.94-.48-1.7-.95-2.3-1.4.04-1.15.11-2.35.23-3.58.15-1.27.31-2.45.5-3.53.22-1.12.41-2.01.56-2.69.6 0 1.1.06 1.51.17.41.08.7.17.84.28l1.12 7.73a20.76 20.76 0 0 0 8.12 2.07c.67 0 1.48-.1 2.41-.28a20.46 20.46 0 0 0 4.82-1.62c.33-.67.6-1.57.78-2.69a19.13 19.13 0 0 0 .22-5.6 9.38 9.38 0 0 0-.28-1.9 90.72 90.72 0 0 0-4.03-1.4l-5.04-1.74c-1.75-.6-3.43-1.2-5.04-1.8a52.22 52.22 0 0 1-4.09-1.78c-1.08-.6-1.75-1.16-2.01-1.68a23 23 0 0 0-.17-1.35 10.7 10.7 0 0 1-.11-1.62c0-1.65.13-3.29.39-4.93.3-1.64.63-2.93 1-3.86.6-.53 1.39-1.05 2.36-1.57.97-.56 2.02-1.07 3.14-1.51 1.15-.49 2.3-.86 3.41-1.12 1.12-.3 2.11-.45 2.97-.45 1.27 0 2.58.17 3.92.5 1.34.3 2.61.71 3.8 1.23 1.24.53 2.25 1.09 3.03 1.68a30.8 30.8 0 0 1-.22 2.41c-.08.86-.19 1.72-.34 2.58-.15.82-.3 1.58-.45 2.3-.15.67-.3 1.24-.44 1.73-.49 0-.96-.06-1.4-.17a5.6 5.6 0 0 1-.9-.39l-1.06-7.06c-.71-.3-1.46-.54-2.24-.72-.75-.23-1.54-.4-2.36-.5a13.42 13.42 0 0 0-4.6-.06c-.7.1-1.43.26-2.17.44-.75.15-1.48.34-2.19.56-.37.82-.65 1.94-.84 3.36a31.7 31.7 0 0 0-.28 4.15c0 .48.02.95.06 1.4l.11 1.17c.9.41 2.13.9 3.7 1.46 1.6.52 3.32 1.1 5.15 1.74 1.87.6 3.64 1.2 5.32 1.84 1.72.6 3.14 1.2 4.26 1.8 1.15.6 1.79 1.15 1.9 1.68.15.82.24 1.54.28 2.18a24 24 0 0 1-.22 6.22c-.2 1.19-.53 2.44-1.01 3.75-.45.45-1.14.97-2.07 1.57-.94.56-2.02 1.12-3.25 1.68a26.47 26.47 0 0 1-3.87 1.4c-1.3.33-2.57.5-3.8.5ZM427.85 45.22c-.26 0-.7-.04-1.34-.11l-2.07-.28a41.4 41.4 0 0 0-2.3-.4c-.78-.14-1.51-.3-2.18-.44a12.6 12.6 0 0 1-1.4-.4c0-.26.05-.48.17-.67.1-.22.22-.39.33-.5l1.46-.17a3 3 0 0 0 1.51-.61c.37-.3.62-.79.73-1.46.15-.67.22-1.62.22-2.86V12.46c0-1.46.13-2.48.4-3.08.26-.6.42-.97.5-1.12h-4.76a1.44 1.44 0 0 1-.34-.34 2.91 2.91 0 0 1-.17-.67c.19-.22.49-.45.9-.67.41-.22.82-.43 1.23-.62.45-.18.77-.28.95-.28h9.64c.15.15.3.38.44.68.15.26.25.57.28.95l-2.24.73c-.56.22-1.02.48-1.4.78-.37.3-.65.76-.84 1.4-.18.6-.28 1.5-.28 2.69v25.53c0 .9-.09 1.65-.28 2.24-.18.6-.39 1.03-.61 1.3l5.26.5c.08.1.15.28.23.5.07.19.1.4.1.62-.55.44-1.22.84-2 1.17-.8.3-1.5.45-2.14.45ZM453.67 45.22c-.26 0-.71-.04-1.34-.11l-2.08-.28a41.4 41.4 0 0 0-2.3-.4c-.78-.14-1.5-.3-2.18-.44a12.6 12.6 0 0 1-1.4-.4c0-.26.06-.48.17-.67.11-.22.23-.39.34-.5l1.45-.17c.71-.11 1.24-.32 1.57-.61.38-.34.62-.84.73-1.52.15-.7.22-1.64.22-2.8V11.51c0-.82.06-1.51.17-2.07.15-.6.3-1 .45-1.18h-9.58l-1.06 8.85c-.15.11-.43.22-.84.33-.41.08-.9.12-1.46.12a30.8 30.8 0 0 1-.5-2.13 76 76 0 0 1-.56-3.2 91.8 91.8 0 0 1-.4-4.03c.57-.52 1.28-1.02 2.14-1.5.85-.5 1.64-.83 2.35-1.02h22.96c.9.26 1.75.64 2.57 1.12.82.49 1.48.96 1.96 1.4a55.42 55.42 0 0 1-.67 5.55c-.3 1.68-.58 2.95-.84 3.8-.52 0-.99-.03-1.4-.1a3.77 3.77 0 0 1-.9-.34l-.95-8.51c-.6-.08-1.5-.17-2.74-.28a40.8 40.8 0 0 0-3.7-.17c-.86 0-1.49.17-1.9.5-.37.34-.62.79-.73 1.35-.07.52-.11 1.1-.11 1.73v26.71c0 .9-.1 1.65-.28 2.24-.19.6-.37 1.03-.56 1.3l5.2.5c.08.07.16.22.23.44.08.19.11.41.11.68-.56.44-1.25.84-2.07 1.17-.78.3-1.47.45-2.07.45ZM493.77 45.22c-.79 0-1.81-.02-3.08-.06-1.27-.07-2.67-.15-4.2-.22-1.5-.07-3.05-.17-4.65-.28a888.2 888.2 0 0 1-8.74-.67 32.7 32.7 0 0 1-2.97-.4 1.95 1.95 0 0 1 .5-1.23l1.46-.16c.68-.12 1.18-.3 1.52-.56.37-.3.61-.79.72-1.46.15-.67.23-1.62.23-2.86V12.57a12.07 12.07 0 0 1 .5-3.58c.15-.38.3-.62.45-.73h-4.82a8.94 8.94 0 0 0-.28-.4 1.33 1.33 0 0 1-.22-.6c.19-.23.49-.46.9-.68.4-.22.82-.43 1.23-.62.45-.18.76-.28.95-.28h20.44c.86.26 1.7.64 2.52 1.12.86.45 1.53.92 2.02 1.4a37.9 37.9 0 0 1-.68 5.44c-.3 1.6-.57 2.8-.84 3.58a5.32 5.32 0 0 1-2.24-.45l-1.23-7.84c-.82-.15-1.86-.28-3.13-.39a103.78 103.78 0 0 0-7.96-.4c-.93 0-1.64.18-2.12.51a2.7 2.7 0 0 0-.96 1.46c-.15.63-.22 1.4-.22 2.3v11.03c1.68-.04 3.23-.1 4.65-.17l4.09-.23c1.27-.1 2.44-.22 3.52-.33l.45.45a25.25 25.25 0 0 1-.62 2.97h-12.09v12.26c0 .82-.1 1.55-.28 2.18-.19.6-.37 1.03-.56 1.29h15.62l2.64-8.74c.52 0 .99.1 1.4.28.4.15.67.28.78.4a78.94 78.94 0 0 1-.22 5.99 44.4 44.4 0 0 1-.34 3.19c-.3.26-.71.58-1.23.95-.52.34-1.05.64-1.57.9-.52.22-.97.35-1.34.39ZM516.05 45.22c-.78 0-1.71-.11-2.8-.34a44.55 44.55 0 0 1-3.24-.95 47.79 47.79 0 0 1-3.08-1.29c-.94-.48-1.7-.95-2.3-1.4.04-1.15.11-2.35.22-3.58.15-1.27.32-2.45.5-3.53l.57-2.69c.6 0 1.1.06 1.51.17.41.08.69.17.84.28l1.12 7.73a20.76 20.76 0 0 0 8.12 2.07c.67 0 1.47-.1 2.4-.28a20.46 20.46 0 0 0 4.82-1.62c.34-.67.6-1.57.79-2.69a19.13 19.13 0 0 0 .22-5.6 9.38 9.38 0 0 0-.28-1.9 90.72 90.72 0 0 0-4.03-1.4l-5.04-1.74c-1.75-.6-3.43-1.2-5.04-1.8a52.22 52.22 0 0 1-4.09-1.78c-1.08-.6-1.75-1.16-2.01-1.68a23 23 0 0 0-.17-1.35 10.7 10.7 0 0 1-.11-1.62c0-1.65.13-3.29.39-4.93.3-1.64.63-2.93 1-3.86.6-.53 1.39-1.05 2.36-1.57.97-.56 2.01-1.07 3.13-1.51 1.16-.49 2.3-.86 3.42-1.12 1.12-.3 2.1-.45 2.97-.45 1.27 0 2.57.17 3.92.5 1.34.3 2.61.71 3.8 1.23 1.24.53 2.25 1.09 3.03 1.68a30.8 30.8 0 0 1-.22 2.41c-.08.86-.2 1.72-.34 2.58-.15.82-.3 1.58-.45 2.3-.15.67-.3 1.24-.45 1.73-.48 0-.95-.06-1.4-.17a5.6 5.6 0 0 1-.9-.39l-1.06-7.06c-.7-.3-1.45-.54-2.24-.72-.74-.23-1.53-.4-2.35-.5a13.42 13.42 0 0 0-4.6-.06c-.7.1-1.43.26-2.17.44-.75.15-1.48.34-2.19.56-.37.82-.65 1.94-.84 3.36a31.7 31.7 0 0 0-.28 4.15c0 .48.02.95.06 1.4l.11 1.17c.9.41 2.13.9 3.7 1.46 1.6.52 3.32 1.1 5.15 1.74 1.86.6 3.64 1.2 5.32 1.84 1.72.6 3.13 1.2 4.25 1.8 1.16.6 1.8 1.15 1.9 1.68.16.82.25 1.54.29 2.18a24 24 0 0 1-.22 6.22c-.2 1.19-.53 2.44-1.01 3.75-.45.45-1.14.97-2.08 1.57-.93.56-2.01 1.12-3.24 1.68a26.47 26.47 0 0 1-3.87 1.4c-1.3.33-2.57.5-3.8.5ZM556.82 45.22c-.26 0-.7-.04-1.34-.11l-2.07-.28a41.4 41.4 0 0 0-2.3-.4c-.78-.14-1.51-.3-2.18-.44a12.6 12.6 0 0 1-1.4-.4c0-.26.05-.48.16-.67.12-.22.23-.39.34-.5l1.46-.17a3 3 0 0 0 1.5-.61c.38-.3.62-.79.74-1.46.14-.67.22-1.62.22-2.86V12.46c0-1.46.13-2.48.4-3.08.25-.6.42-.97.5-1.12h-4.76a1.44 1.44 0 0 1-.34-.34 2.91 2.91 0 0 1-.17-.67c.19-.22.49-.45.9-.67.4-.22.82-.43 1.23-.62.45-.18.76-.28.95-.28h9.63c.15.15.3.38.45.68.15.26.24.57.28.95l-2.24.73c-.56.22-1.03.48-1.4.78-.37.3-.65.76-.84 1.4-.19.6-.28 1.5-.28 2.69v25.53c0 .9-.1 1.65-.28 2.24-.19.6-.39 1.03-.61 1.3l5.26.5c.07.1.15.28.22.5.08.19.12.4.12.62-.56.44-1.24.84-2.02 1.17-.78.3-1.5.45-2.13.45ZM574.69 45.22c-.3 0-.84-.06-1.63-.17l-2.63-.39c-.97-.19-1.89-.37-2.74-.56a21.5 21.5 0 0 1-1.9-.5c0-.27.05-.49.16-.68.11-.22.22-.39.34-.5l1.45-.17c.71-.11 1.23-.32 1.57-.61.37-.34.62-.86.73-1.57.11-.71.17-1.68.17-2.91V12.52c0-1.2.09-2.15.28-2.86.22-.75.44-1.21.67-1.4h-4.82a3.69 3.69 0 0 1-.33-.4 2.05 2.05 0 0 1-.17-.6c.18-.23.48-.46.9-.68.4-.22.81-.43 1.23-.62.44-.18.76-.28.95-.28h6.33l20.21 32.26-.28-2.24c-.07-.97-.11-2.35-.11-4.14V12.68c0-1.2.1-2.14.28-2.85.22-.75.45-1.22.67-1.4h-4.81a8.94 8.94 0 0 0-.28-.4 1.33 1.33 0 0 1-.23-.61c.19-.22.49-.47.9-.73.4-.26.82-.48 1.23-.67.45-.22.76-.34.95-.34h8.51c.15.15.3.38.45.68.15.26.24.57.28.95l-2.3.78c-.7.19-1.23.47-1.56.84-.34.38-.58.9-.73 1.57-.11.63-.17 1.55-.17 2.74v23.08c0 1.75.06 3.34.17 4.76.15 1.38.28 2.37.4 2.96-.3.23-.7.43-1.18.62-.45.15-.92.28-1.4.4l-1.3.16-18.7-29.85a29.57 29.57 0 0 1-1.73-3.25c-.34-.9-.54-1.5-.62-1.84h-.28c-.07.26-.13.67-.17 1.23-.03.52-.05 1.23-.05 2.13v24.8c0 .86-.1 1.59-.28 2.19-.19.6-.38 1-.56 1.23l6.16.62c.07.1.15.26.22.44.11.19.17.41.17.68-.41.33-.9.63-1.46.9a12 12 0 0 1-1.62.55c-.52.11-.97.17-1.34.17ZM623.8 45.22c-.26 0-.71-.04-1.35-.11l-2.07-.28a41.4 41.4 0 0 0-2.3-.4c-.78-.14-1.5-.3-2.18-.44a12.6 12.6 0 0 1-1.4-.4c0-.26.06-.48.17-.67.11-.22.22-.39.34-.5l1.45-.17c.71-.11 1.23-.32 1.57-.61.37-.34.62-.84.73-1.52.15-.7.22-1.64.22-2.8V11.51c0-.82.06-1.51.17-2.07.15-.6.3-1 .45-1.18h-9.58l-1.06 8.85c-.15.11-.43.22-.84.33-.41.08-.9.12-1.46.12a30.8 30.8 0 0 1-.5-2.13 76 76 0 0 1-.56-3.2 91.8 91.8 0 0 1-.4-4.03c.57-.52 1.27-1.02 2.13-1.5.86-.5 1.65-.83 2.36-1.02h22.96c.9.26 1.75.64 2.57 1.12.82.49 1.48.96 1.96 1.4a55.42 55.42 0 0 1-.67 5.55c-.3 1.68-.58 2.95-.84 3.8-.52 0-.99-.03-1.4-.1a3.77 3.77 0 0 1-.9-.34l-.95-8.51c-.6-.08-1.51-.17-2.74-.28a40.8 40.8 0 0 0-3.7-.17c-.86 0-1.5.17-1.9.5-.38.34-.62.79-.73 1.35-.07.52-.11 1.1-.11 1.73v26.71c0 .9-.1 1.65-.28 2.24-.19.6-.38 1.03-.56 1.3l5.2.5c.08.07.16.22.23.44.07.19.11.41.11.68-.56.44-1.25.84-2.07 1.17-.78.3-1.47.45-2.07.45ZM663.9 45.22c-.79 0-1.82-.02-3.09-.06-1.27-.07-2.67-.15-4.2-.22-1.49-.07-3.04-.17-4.64-.28a888.2 888.2 0 0 1-8.74-.67 32.7 32.7 0 0 1-2.97-.4 1.95 1.95 0 0 1 .5-1.23l1.46-.16c.67-.12 1.18-.3 1.51-.56.38-.3.62-.79.73-1.46.15-.67.23-1.62.23-2.86V12.57a12.07 12.07 0 0 1 .5-3.58c.15-.38.3-.62.45-.73h-4.82a8.94 8.94 0 0 0-.28-.4 1.33 1.33 0 0 1-.22-.6c.18-.23.48-.46.9-.68.4-.22.81-.43 1.23-.62.44-.18.76-.28.95-.28h20.44c.86.26 1.7.64 2.52 1.12.86.45 1.53.92 2.01 1.4a37.9 37.9 0 0 1-.67 5.44c-.3 1.6-.58 2.8-.84 3.58a5.32 5.32 0 0 1-2.24-.45l-1.23-7.84c-.82-.15-1.87-.28-3.14-.39a103.78 103.78 0 0 0-7.95-.4c-.93 0-1.64.18-2.13.51a2.7 2.7 0 0 0-.95 1.46c-.15.63-.22 1.4-.22 2.3v11.03c1.68-.04 3.23-.1 4.65-.17l4.08-.23c1.27-.1 2.45-.22 3.53-.33l.45.45a25.25 25.25 0 0 1-.62 2.97H649v12.26c0 .82-.09 1.55-.27 2.18-.19.6-.38 1.03-.56 1.29h15.62l2.63-8.74c.53 0 1 .1 1.4.28.41.15.68.28.79.4a78.94 78.94 0 0 1-.23 5.99 44.4 44.4 0 0 1-.33 3.19c-.3.26-.71.58-1.23.95-.53.34-1.05.64-1.57.9-.53.22-.97.35-1.35.39ZM683.1 45.22c-.26 0-.7-.04-1.34-.11l-2.07-.28a41.4 41.4 0 0 0-2.3-.4c-.78-.14-1.51-.3-2.18-.44a12.6 12.6 0 0 1-1.4-.4c0-.26.05-.48.16-.67.12-.22.23-.39.34-.5l1.46-.17a3 3 0 0 0 1.5-.61c.38-.3.62-.79.74-1.46.14-.67.22-1.62.22-2.86V12.57a12.07 12.07 0 0 1 .5-3.58c.15-.38.3-.62.45-.73h-4.81a3.69 3.69 0 0 1-.34-.4c-.11-.18-.17-.38-.17-.6.19-.23.49-.46.9-.68.4-.22.82-.43 1.23-.62.45-.18.76-.28.95-.28h17.92c.75.19 1.53.49 2.35.9.86.37 1.66.8 2.41 1.29.75.45 1.36.91 1.85 1.4.34.7.58 1.53.73 2.46.18.93.28 1.85.28 2.75 0 1.23-.11 2.48-.34 3.75a15.85 15.85 0 0 1-.84 3.3 5.83 5.83 0 0 1-1.29 2.24 7.5 7.5 0 0 1-1.73 1.07c-.79.37-1.63.72-2.52 1.06-.9.3-1.74.52-2.52.67v.23a6.3 6.3 0 0 1 1.8 2.35l3.8 6.89c.6 1.12 1.17 2.12 1.73 3.02.56.9 1.22 1.6 1.96 2.13.75.52 1.68.8 2.8.84l1.07.05c.07.12.17.28.28.5.11.23.17.5.17.8-.42.36-.92.7-1.52 1-.56.26-1.14.47-1.73.62-.6.14-1.18.22-1.74.22a4.81 4.81 0 0 1-3.58-1.57c-1.01-1.04-1.93-2.4-2.75-4.09l-4.76-10.08a5 5 0 0 0-1.23-1.79 3.03 3.03 0 0 0-1.85-.61h-5.15v11.36c0 .9-.1 1.65-.28 2.24-.19.6-.39 1.03-.61 1.3l5.26.5c.07.1.15.28.22.5.08.19.12.4.12.62-.53.44-1.2.84-2.02 1.17-.78.3-1.5.45-2.13.45Zm-.56-20.78 5.15-.1a78.77 78.77 0 0 0 8.24-.62 9.4 9.4 0 0 0 1.5-3.64c.34-1.53.51-3.1.51-4.7 0-1.28-.15-2.47-.45-3.6a6.07 6.07 0 0 0-1.28-2.74 34.37 34.37 0 0 0-6.33-.78c-1.2-.07-2.35-.11-3.47-.11-1.39 0-2.37.35-2.97 1.06-.6.67-.9 1.74-.9 3.2v12.03ZM717.93 45.22c-.3 0-.84-.06-1.62-.17l-2.63-.39c-.97-.19-1.89-.37-2.75-.56a21.5 21.5 0 0 1-1.9-.5c0-.27.06-.49.17-.68.11-.22.22-.39.33-.5l1.46-.17c.7-.11 1.23-.32 1.57-.61.37-.34.61-.86.73-1.57.1-.71.16-1.68.16-2.91V12.52c0-1.2.1-2.15.28-2.86.23-.75.45-1.21.68-1.4h-4.82a3.69 3.69 0 0 1-.34-.4 2.05 2.05 0 0 1-.16-.6c.18-.23.48-.46.9-.68.4-.22.81-.43 1.22-.62.45-.18.77-.28.96-.28h6.32l20.22 32.26-.28-2.24c-.08-.97-.11-2.35-.11-4.14V12.68c0-1.2.1-2.14.28-2.85.22-.75.45-1.22.67-1.4h-4.82a8.94 8.94 0 0 0-.28-.4 1.33 1.33 0 0 1-.22-.61c.19-.22.48-.47.9-.73.4-.26.82-.48 1.23-.67.45-.22.76-.34.95-.34h8.51c.15.15.3.38.45.68.15.26.24.57.28.95l-2.3.78c-.7.19-1.23.47-1.56.84-.34.38-.58.9-.73 1.57-.11.63-.17 1.55-.17 2.74v23.08c0 1.75.06 3.34.17 4.76.15 1.38.28 2.37.39 2.96-.3.23-.7.43-1.18.62-.44.15-.91.28-1.4.4l-1.28.16-18.7-29.85a29.57 29.57 0 0 1-1.74-3.25c-.34-.9-.55-1.5-.62-1.84h-.28c-.08.26-.13.67-.17 1.23-.04.52-.05 1.23-.05 2.13v24.8c0 .86-.1 1.59-.28 2.19-.2.6-.38 1-.56 1.23l6.16.62c.07.1.14.26.22.44.11.19.17.41.17.68-.41.33-.9.63-1.46.9a12 12 0 0 1-1.62.55c-.53.11-.97.17-1.35.17ZM773.82 45.22c-.78 0-1.8-.02-3.08-.06-1.27-.07-2.67-.15-4.2-.22-1.5-.07-3.04-.17-4.65-.28a888.2 888.2 0 0 1-8.73-.67 32.7 32.7 0 0 1-2.97-.4 1.95 1.95 0 0 1 .5-1.23l1.46-.16c.67-.12 1.18-.3 1.51-.56.37-.3.62-.79.73-1.46.15-.67.22-1.62.22-2.86V12.57a12.07 12.07 0 0 1 .5-3.58c.16-.38.3-.62.46-.73h-4.82a8.94 8.94 0 0 0-.28-.4 1.33 1.33 0 0 1-.22-.6c.18-.23.48-.46.9-.68.4-.22.81-.43 1.22-.62.45-.18.77-.28.96-.28h20.44c.85.26 1.7.64 2.52 1.12.85.45 1.53.92 2.01 1.4a37.9 37.9 0 0 1-.67 5.44c-.3 1.6-.58 2.8-.84 3.58a5.32 5.32 0 0 1-2.24-.45l-1.23-7.84c-.82-.15-1.87-.28-3.14-.39a103.78 103.78 0 0 0-7.95-.4c-.93 0-1.64.18-2.13.51a2.7 2.7 0 0 0-.95 1.46c-.15.63-.22 1.4-.22 2.3v11.03c1.68-.04 3.22-.1 4.64-.17l4.1-.23c1.26-.1 2.44-.22 3.52-.33l.45.45a25.25 25.25 0 0 1-.62 2.97h-12.1v12.26c0 .82-.09 1.55-.27 2.18-.2.6-.38 1.03-.56 1.29h15.62l2.63-8.74c.52 0 1 .1 1.4.28.41.15.67.28.79.4a78.94 78.94 0 0 1-.23 5.99 44.4 44.4 0 0 1-.33 3.19c-.3.26-.71.58-1.24.95-.52.34-1.04.64-1.56.9-.53.22-.98.35-1.35.39ZM800.59 45.22c-.26 0-.71-.04-1.34-.11l-2.08-.28a41.4 41.4 0 0 0-2.3-.4c-.78-.14-1.5-.3-2.18-.44a12.6 12.6 0 0 1-1.4-.4c0-.26.06-.48.17-.67.11-.22.23-.39.34-.5l1.45-.17c.71-.11 1.24-.32 1.57-.61.37-.34.62-.84.73-1.52.15-.7.22-1.64.22-2.8V11.51c0-.82.06-1.51.17-2.07.15-.6.3-1 .45-1.18h-9.58l-1.06 8.85c-.15.11-.43.22-.84.33-.41.08-.9.12-1.46.12a30.8 30.8 0 0 1-.5-2.13 76 76 0 0 1-.56-3.2 91.8 91.8 0 0 1-.4-4.03c.57-.52 1.28-1.02 2.14-1.5.85-.5 1.64-.83 2.35-1.02h22.96c.9.26 1.75.64 2.57 1.12.83.49 1.48.96 1.96 1.4a55.42 55.42 0 0 1-.67 5.55c-.3 1.68-.58 2.95-.84 3.8-.52 0-.99-.03-1.4-.1a3.77 3.77 0 0 1-.9-.34l-.95-8.51c-.6-.08-1.5-.17-2.74-.28a40.8 40.8 0 0 0-3.7-.17c-.85 0-1.49.17-1.9.5-.37.34-.62.79-.73 1.35-.07.52-.11 1.1-.11 1.73v26.71c0 .9-.1 1.65-.28 2.24-.19.6-.37 1.03-.56 1.3l5.2.5c.08.07.16.22.23.44.08.19.11.41.11.68-.56.44-1.25.84-2.07 1.17-.78.3-1.47.45-2.07.45Z"/>
  </g>
</svg>
