<svg xmlns="http://www.w3.org/2000/svg" xml:space="preserve" fill-rule="evenodd" fill="currentColor" stroke-linejoin="round" stroke-miterlimit="2" clip-rule="evenodd" viewBox="0 0 747 197">
  <path fill="none" d="M0 0h746.51v196.31H0z"/>
  <path fill-rule="nonzero" d="m19.55 134.98 11.19 15.23c2.74 3.72 5.47 7.96 8.04 11.95.55.85 1.05 1.9 1.75 2.98.78 1.21 1.29 2.26 2.14 3.6a44.85 44.85 0 0 0 2.9 3.95l1.37 1.86c3.25 4.24 6.81 8.97 12.03 9.9 5.3.51 12.72-3.93 17.08-6.74 4.48-2.88 7.85-6.43 8.9-12.24.5-1.35.56-3.1.15-4.55a44.9 44.9 0 0 0-3.43-8.24 292.45 292.45 0 0 0-8.42-13.6c-.78-1.2-2.42-3.75-3.71-5.48-1.68-2.35-3.13-4.33-4.07-5.78-.58-.65-1.29-1.74-1.99-2.83-.78-1.2-1.48-2.3-2.3-3.83-3.5-5.44-10.42-15.37-16.51-24.81-1.88-2.39-3.67-5.7-7.12-7.06-1.47-.43-3.53-1.5-9.26-.55-4.08.58-8.88 3.5-12.27 5.69a24.58 24.58 0 0 0-4.77 3.76c-1.18 1.62-2.92 2.9-4.16 5.25-3.22 4.3-.85 8.77 1.36 13l11.1 18.54ZM50.25 151c-.62-.96-1.36-1.85-1.99-2.82l-2.73-3.72c-1.4-2.18-2.74-4.24-3.76-5.29-.59-.65-1.13-1.5-1.68-2.34a93.38 93.38 0 0 1-3.27-5.6c-1.75-2.99-2.6-4.84-9.87-15.06-1.8-2.26-4.03-5.45-5.19-8.3-1.95-3.03 3.87-7.3 6.04-5.78 1.7 1.3 1.33 2.05 7.65 9.46l4.6 7.14c1.48 2.3 2.89 4.48 4.41 6.58 1.18 1.3 4.7 6.22 5.48 7.43L59 146.73a89.76 89.76 0 0 0 3.52 4.93l2.96 4.6c4.14 6.42 5.61 9.23.9 11.76-1.17.58-3.41 1.34-4.7-.4L50.25 151ZM106.2 159.78c3.64-3 2.26-5.68 1.41-7.35a79.02 79.02 0 0 1-5.1-8.72c-2.88-5.64-5.3-11.35-19.85-40.46-2.82-5.84-5.7-11.8-8-16.3-2.1-4.1-4.91-9.61-6.15-11.4l-1.38-2.7-2.53-2.75c-4.07-1.31-9.25 2.47-4.68 10.48l2.3 4.49c.97.95 4.11 6.79 7.12 12.69 6.62 12.95 15.47 31.87 16.4 34.63l7.07 13.85a46.21 46.21 0 0 1 2.16 3.91l3.47 6.8c.92 1.8 2.35 3 5.44 3.69l2.32-.86ZM121 146.4c1.5 3.42 4.1 4.32 6.35 3.33 1.84-.82 3.46-3.58 2.34-7.18l-3.43-7.77c-1.23-2.76-2.39-5.4-3.48-8.22-1.5-3.75-3.12-7.44-4.75-11.13l-1.23-2.76-14.84-33.27c-2.3-3.08-4.75-3.26-6.46-2.5-2.9 1.28-3.68 5.56-2.4 7.04l15.17 33.28 4.48 10.15 8.25 19.02ZM84.06 65.25c1 2.24 4.61 4.74 8.17 3.17 1.45-.64 3.15-5.33 3.06-7.34-1.52-3.42-6.43-4.56-8-3.86-3.56 1.57-4.57 5-3.23 8.03ZM145.68 102.82a5.7 5.7 0 0 1-1.04-1.62l-1.7-2.6-7.28-10.09a36.75 36.75 0 0 1-3.76-5.38c-.8-1.4-1.28-2.3-4.76-7.32l.23.22-3.15-4.53-1.69-2.15c-1.7-.92-3.31-1.57-5.62-.74-3.11 1.12-2.84 5.3-1.57 7.14.05.14.38.63.61.85l.71 1.12 1.23 2.16 1.04 1.62c.18.09 3.54 5.62 10.02 14.31l-.19-.09 1.22 1.7.29.37c1.4 1.79 3.42 4.43 4.32 6.1.14.4.47.9.52 1.03l1.42 2.25 6.56 8.5 7.04 9.42c-.1-.27 1.09 1.75 1.61 2.78.76 1.26 1.56 2.66 2.87 4.18 5.56 6.12 7.77 5.02 7.9 4.97.95-.34 2.04-.73 3.64-4.36-1.4-9.44-3.35-23.89-4.42-33.29l-.19-2.23a222.81 222.81 0 0 0-1.52-11.08c-.25-1.13-.33-2.63-.58-3.77l-.32-2.18a64.88 64.88 0 0 0-.96-6.08l-.5-1.8.05-.33-.57-2.85c-.14-.41-.1-.73-.2-1-.01-.46-.06-.6-.16-.86-.25-1.14-.28-2.5-.58-3.77l-.19-2.23c-.35-3.54-4.6-6-7.58-4.93-1.35.48-2.77 2.06-2.93 5.48l.3.81.12 1.64.23 1.9c.14.42.2 1 .35 1.41l.38 1.09c.05.13.15.4.3 1.27.05.13.02.45.06.59.01.45.26 1.13.35 1.4.4 1.54.63 3.45.98 4.85l.64 4.36.18 2.23c.05.14-.03.32.01.46-.03.32.2 1 .3 1.26l.9 5.04c.35 1.86.44 3.82.71 5.86l.6 4.68c.1.27.06.59.16.86-.09.18-.04.32.01.46.26 3.27.7 7.09 1.2 11.04l-6.38-8.42-.13.04-.71-1.12-.38-.63ZM187.23 121.9c1.03 3.6 3.48 4.84 5.84 4.16 1.94-.55 3.91-3.06 3.3-6.78l-2.33-8.17c-.84-2.9-1.63-5.68-2.32-8.62-.97-3.92-2.08-7.8-3.19-11.67l-.83-2.91-10.15-35c-1.86-3.35-4.25-3.87-6.05-3.35-3.05.87-4.41 5-3.34 6.64l10.46 35.05 3.05 10.66 5.56 19.98Zm-25.46-85.44c.67 2.36 3.91 5.32 7.65 4.26 1.53-.44 3.86-4.85 4.04-6.85-1.03-3.6-5.74-5.4-7.4-4.92-3.74 1.07-5.2 4.33-4.3 7.51ZM237.14 66.43l-.65-2.96c-.12-.56-.39-1.09-.5-1.65l-.4-1.83c-1.1-4.33-2.44-9.79-3.44-12.37l-1.01-1.25-.1-.42a12.67 12.67 0 0 0-3.15-4.33c-1.8-1.52-3.24-2.68-6.44-3.16-2.2.04-6.64-.03-9.17.53a7.8 7.8 0 0 1-2.53.55c-1.27.28-2.63 1.46-3.76 1.7-10.24 8.43-8.2 10.34-6.32 23.05.39 2.42 1.12 5.8 1.64 8.19a59 59 0 0 0 1.79 6.83l.9 4.08c.36 1.69 1.19 5.49 1.79 7.57.86 3.94 2.24 10.27 3.24 14.18 3.07 10.68 14 12.86 19.34 12.28 12.51-1.4 16.64-7.46 15.5-19.44l-.32-.82-.22-.98c-.2-1.58-.96-5.1-1.64-6.87-.6-2.08-2.64-3.99-6.3-3.2-3.74 2.45-3.47 3.71-2.94 6.1l.18.85c.06.28.26.53.3.67l1.2 5.49s.02.14-.14.76c-.23 4.33-1.13 6.3-4.3 7.28-1.66.51-4.82.9-6.35.65l.14-.03c-2.07-.73-3.92-1.8-4.68-4.58-.06-.28-.26-.53-.33-.81l-3.65-16.75.28-.06c1.8-.54 7.15-1.7 9.12-2.13 1.15-.1 3.12-.54 3.97-.72l1.69-.37c.28-.06.53-.26.67-.3l4.5-.98c1.27-.27 3.1-.67 4.84-4.15l-2.75-10.6Zm-14.47 8.02c-.56.12-1.43.17-2.28.35-.7.15-1.51.48-2.08.6l-5.06 1.1c-.14.04-.46-.04-.6-.01l-.28.06a64.75 64.75 0 0 1-1.99-7.08 50.33 50.33 0 0 1-1.06-7.58c-.3-1.4-1.07-4.93-1.4-7.07-.2-2.3.35-3.17 2.15-5.03l1.9-.71c.82-.33 2.34-.8 3.04-.96.14-.03.73-.01 1.5.11 2.37.08 3.66-.8 6.84 3.67.44.64 2.47 8.6 4 14.9.18.84.53 1.8.72 2.64l.76 3.52c-.95.35-1.65.5-2.22.63l-3.94.86ZM261.37 105.62c.9 3.36 3.12 4.65 5.4 4.33 2.7-.37 5.3-3.64 4.14-6.82l-.36-1.55-.14-1c-.04-.29.04-.73-.02-1.16-.04-.29-.24-.7-.28-.98l-.42-3c-.46-2.26-.73-4.25-1.03-6.4l-.8-5.7c-.1-.71-.36-1.55-.48-2.4-.65-3.7-1.21-7.69-1.7-11.25a86.36 86.36 0 0 0-.94-5.69l.02.15c-.6-2.25-2.28-12.2-2.07-14.84a11.91 11.91 0 0 1 6.66-9.65l3.79-.96c2.14-.3 3.14-.44 4.77-.23l-.17-.12c3.5 1.11 7.16-2.88 6.7-6.17-.23-1.7-1.77-3.38-4.85-3.54l.16.13-2.22-.28c-1.58.08-2.9-.03-8 .97-3.39.76-6.17 3.77-8.2 6.96-.54-1.82-2.6-5.16-5.09-5.26-4.64.07-4.78 4.3-4.7 5.9 0 1.01.17 2.3.25 2.87l.2 1.42c.26 1.86.34 2.43.37 4.75l.8 5.7c.11.86.09 1.73.2 2.59l.37 2.57c.51 3.7 1.47 9.53 2.3 13.49l.74 5.28c.12.85.1 1.73.22 2.58 1.45 10.41 3.68 24.35 4.38 27.3ZM316.43 81.2c.1 2.02.35 4.17.6 6.32.36 4.02.98 7.88 4.63 11.45l1.04.66c1.8 1.35 3.6 2.85 6.36 3.28l.58-.02c1.17.22 2.61.3 3.76.24.29-.02 1.02.23 1.31.22 1.3.08 3.61.1 5.05.03 4.9-.1 10.36-.38 15.63-7.28l.35-1.75c.77-1.77.71-2.92 1.08-9.86-.12-2.3-.48-3.73-1.65-9.87.09-1.01.17-2.17.12-3.17-.13-2.6-2.89-5.77-4.35-6.27l-1.6-.35a14.27 14.27 0 0 0-4.93-.33c-1.71.23-2.83 1.01-3.04 2.46l-.38 1.18-.34 1.74c-.36 4.2.2 9.5.75 14.82.04.72 1.33 6.13-2.27 6.31-2.44.13-4.19-.07-4.34-.35-1.03-.38-.9-3.56-1.32-6.14-.21-1.28 0-2.88-.35-3.87-1.13-8.16-.92-15.24-1.77-23.56l.3-5.5c-.17-3.3-1.34-12.04-1.2-17.81l-.24-4.75c.14-2.89 0-2.88-.16-5.9l-.07-1.44c-.02-.43-.47-6.46.4-6.5 1.7-.24.42-.03 3.01-.16.72-.04 1.16.08 1.18.52l.5 1.27c.05 1 .67 4.72.43 5.74-.08 1.16.2 1 .26 2.15.07 1.44-.22 1.46 0 2.74.6 3.29 2.2 6.67 4.67 6.97 2.46.17 7.95.32 9.42-1.92.88-2.5.31-5.2.2-7.36-.27-5.32-.67-13.23-2.37-18.34-.32-.56-.65-1.4-3.18-3-1.64-1.08-3.67-1.26-5.12-1.48-.15.01-1.02-.09-1.17-.22a51.9 51.9 0 0 0-9.53-.38c-1.44.07-14.57-.13-15.17 16.48-.03 2.17.83 16.25 1 16.97.28 2.58.4 4.88.54 7.61l1.38 38.43ZM373.28 50.2c4.75.08 4.82-4.68 4.86-7.7v-.57c.05-3.32 2.15-9.2 5.91-10.44l.44.01c.28 0 .43-.14.86-.13l1.87.03c2.45-.11 4.18.05 5.46 1.51l-.15-.14c1.84 2.9 1.87 10.82 1.8 16.15l-.07 4.32c-2.62 2.56-6.1 4.52-9.59 6.2-7.11 3.94-15.67 8.28-18.69 18.32l.15-.14c-.75 1.71-.92 4.16-.96 6.46-.13 9.65 5.77 20.1 20.06 18 3.62-1.4 6.4-4.8 7.71-5.94.27 1.87 1.8 5.78 4.67 6.11 3.44 1.2 5.66-3.38 5.69-5.25 0-.57.02-1.58-.11-2.3l.14-10.23c-.13-.72-.11-2.01-.1-3.45.02-1.16.04-2.6.21-4.32.33-2.88.12-8.5.52-26.78l.03-2.02c.08-5.76.2-14.83-2.89-20.2l-1.28-1.17c-1.56-1.75-2.98-3.2-10.45-4.47-1.73-.02-5.18.08-7.06.34h.14c-10.96 1.14-14.18 15.64-13.85 22.7-.05 3.17-.07 5.04 4.68 5.1Zm12.23 41.66c-.72.42-3.32.67-4.9.65-1-.02-2.02-.17-2.58-.76-2.28-1.61-2.97-4.36-2.93-7.24.02-1.15.18-2.59.64-4.02l-.15.14c1.05-2.72 3.98-6.57 7.32-8.83v.15a92.79 92.79 0 0 0 11.04-6.62l-.55 18.43c-.9 2.58-4.55 6.7-7.89 8.1ZM418.18 97.98c.14 3.48 2.01 5.22 4.3 5.42 2.73.23 6-2.39 5.55-5.75v-1.59l.08-1c.02-.29.2-.7.24-1.14.02-.28-.09-.73-.06-1.01l.26-3.02c.05-2.3.22-4.31.4-6.47l.48-5.73c.06-.72 0-1.6.07-2.46a302 302 0 0 1 .81-11.34c.1-1.15.33-3.88.34-5.76v.15c-.1-2.32.46-12.4 1.25-14.93a11.91 11.91 0 0 1 8.62-7.94l3.91-.1c2.16.18 3.16.27 4.7.83L449 36c3.17 1.85 7.62-1.24 7.9-4.54.15-1.72-.99-3.7-3.95-4.52l.13.15-2.1-.75c-1.57-.28-2.84-.68-8.03-.83-3.47 0-6.84 2.31-9.52 4.98-.13-1.9-1.4-5.61-3.81-6.25-4.54-.96-5.61 3.14-5.89 4.7-.23 1-.34 2.29-.39 2.86l-.12 1.44c-.16 1.86-.2 2.44-.69 4.7l-.48 5.75c-.07.86-.29 1.7-.36 2.57l-.22 2.58c-.32 3.73-.67 9.63-.72 13.67l-.45 5.3c-.08.87-.3 1.72-.37 2.58-.88 10.47-1.78 24.56-1.75 27.6ZM494.4 35.4c-2.65-1.84-3.66-3.88-9.64-4.76-2.56-.38-4-.45-6.27.1-.6.05-1.35.23-2.45.8l.02-.15-1.55.65-.33.24c-3.36 1.1-6.12 6.96-6.8 10.64a73.34 73.34 0 0 0-.97 5.54l-.04.28a85.48 85.48 0 0 0-1.23 6.37l-4.34 26.43c-.21 2.44-.66 5.44-.67 7.47-.25 2.73-.17 6.1.84 9.15-.12 2.75 1.08 4.53 2.6 6.06l1.3 1.07-.15-.02a12.93 12.93 0 0 0 4.5 2.99l-.13-.02c1.36.64 3.19 1.05 4.9 1.3 2.7.4 5.33.35 11.95-4.05.77 1.71-.73 4.98 3.4 5.6 2.13.3 4.48-.8 4.88-3.5l.21-1.43c.04-.29.2-.4.23-.55.06-.43-.08-.45-.06-.6l.4-2.7c0-1.02.13-1.87.28-2.87.12-.85.42-2.85.44-4l5.62-38.05c.06-.42-.02-.87.06-1.44l3.12-21.09c.27-2.87.96-6.55 1.5-9.23l.5-3.42.4-5.62c.7-4.7-5.94-5.1-5.94-5.1-3.14.56-3.54 4.28-3.65 5l-1.32 8.97c-.2 1.28-.5 2.4-.6 3.11l-1.02 6.84Zm-6.88 50.52-.23 1.57c-.2 1.28-.42 2.85-1.15 4.78-.29 2-.64 3.4-1.12 4.64-.22.55-.43.95-1.06 1.3-.68.63-2.1 1.43-3.12 1.43-2.7.47-5.6.48-8.2-.63l-.3-.04a14.81 14.81 0 0 1-2.53-6.49c.13-1.87.16-3.03.04-4.22l-.02.15c.11-1.73.38-3.59.68-5.58l3.36-21.77.88-5.99a74.72 74.72 0 0 0 1.85-8.6l.1-.72c.2-2.3.98-3.64 2.52-5.16.42.07 1.48-.21 2.24-.4l1.91-.15c1.73.11 4.26.78 6.07 1.33 2.25.48 3.08 1.77 3.28 3.4l.02-.14c0 2.03-.28 3.89-.58 5.88l-.35 2.42c-.05.29.03.74-.03 1.16-.32 2.14-.61 5.15-.79 7.3l-3.47 24.53ZM509.3 109.2c-.77 3.67.82 5.91 3.22 6.41 1.97.42 4.9-.88 6.08-4.46l1.74-8.32c.62-2.96 1.21-5.78 1.97-8.7.97-3.92 1.8-7.87 2.62-11.82l.62-2.96 7.32-35.68c-.08-3.85-1.95-5.42-3.79-5.8-3.1-.65-6.23 2.37-6.05 4.32l-7.07 35.9-2.27 10.85-4.39 20.26Zm17.27-87.45c-.5 2.4.99 6.53 4.8 7.33 1.54.32 5.66-2.5 6.75-4.18.77-3.66-2.56-7.45-4.25-7.8-3.8-.8-6.62 1.4-7.3 4.65ZM549.95 55.64a39.1 39.1 0 0 1-.9 3.78c-.3 1.11-1.07 3.89-1.28 5.18l-5.54 19.98a37.91 37.91 0 0 0-.97 4.06c-.12.42-.02.6-.1.87l-2.14 7.77c-.08.28-.02.6-.14 1.01l-.53 1.95a36.92 36.92 0 0 1-1.99 6.62l-2.11 7.63c-.56 1.5-1.3 4.13 1.51 6.4 3.67 2.96 7.2-1.15 7.73-3.09l.2-.7c.11-.4.05-.72.12-1 .13-1.01.33-1.7.66-2.36l.8-2.92c.08-.27.3-.51.37-.79a93.19 93.19 0 0 0 1.97-6.03c.5-1.8 1.33-5.31 1.73-7.3.15-.55.13-1 .28-1.56.4-1.98.9-3.78 1.4-5.59l.15-.55c.04-.14-.06-.32-.02-.46l4.57-16.51c.08-.28.33-.66.37-.8a32.53 32.53 0 0 0 1.6-6.28c1.85-7.25 3.22-10.01 9.74-8.2a29 29 0 0 1 3.43 1.1c4.86 1.34 4.26 5.66 3.54 9.34l-.54 1.94-.84 4.1c-.2 1.3-.78 3.37-1.32 5.32-.92 3.33-1.85 6.66-2.64 8.98l-1.77 6.38a85.14 85.14 0 0 0-1.71 5.65l-2.04 7.36c-.11.42-.37.8-.48 1.2l-3.8 13.75c-.43 1.52.27 5.46 2.95 6.05 5.1.96 6.94-2.41 6.96-4.65l-.07.28c.8-2.92 1.4-5.6 2.09-8.09l3.92-14.15c.15-.56.4-.94.56-1.5l1.19-4.3c.64-1.76 1.78-5.33 2.62-8.38 1.12-4.03 2.44-9.34 2.92-11.6l.96-3.47c3.56-13.95 1.44-19.77-11.24-24.18-4.67-.4-7-.6-11.2 2.13.24-3.52-1.88-5.6-3.13-5.95-1.8-.5-4.07.67-5.41 2.84l-2.43 8.74ZM603.3 87.46c4.45 1.68 6.12-2.77 7.2-5.6l.2-.53c1.16-3.1 5.14-7.92 9.1-7.8l.4.15c.27.1.45.01.86.17l1.75.66c2.34.73 3.9 1.47 4.61 3.28l-.08-.19c.73 3.36-1.93 10.82-3.81 15.8l-1.52 4.04c-3.34 1.51-7.29 2.18-11.13 2.58-8.03 1.28-17.55 2.45-23.8 10.87l.18-.08c-1.28 1.36-2.28 3.6-3.1 5.75-3.4 9.03-1.4 20.87 12.75 23.74 3.87-.07 7.65-2.34 9.27-2.96-.39 1.85-.28 6.05 2.31 7.33 2.83 2.3 6.48-1.25 7.14-3 .2-.54.56-1.48.68-2.2l3.6-9.57c.13-.72.58-1.94 1.1-3.28.4-1.08.9-2.43 1.65-4 1.29-2.59 3-7.94 9.6-25l.7-1.89c2.04-5.39 5.24-13.88 4.16-19.98l-.8-1.54c-.88-2.17-1.72-4.03-8.32-7.75-1.62-.6-4.9-1.7-6.75-2.09l.13.05c-10.7-2.65-18.66 9.9-20.75 16.65-1.11 2.96-1.78 4.71 2.67 6.4Zm-2.65 43.33c-.83.15-3.35-.5-4.83-1.06-.95-.35-1.84-.84-2.18-1.59-1.6-2.3-1.3-5.1-.28-7.8.4-1.08 1.05-2.37 1.96-3.57l-.19.09c1.91-2.2 5.98-4.83 9.9-5.82l-.06.14a93.02 93.02 0 0 0 12.63-2.47l-6.78 17.14c-1.72 2.12-6.56 4.76-10.17 4.94ZM665.4 156.7c.46-1.22.98-2.25 1.57-3.4.46-.9 1.52-2.95 2.05-4.3l10.13-19.72c.13-.26.2-.7.4-1.1l.59-1.15c.4-1.09.85-1.98 1.38-3 .53-1.03 1.71-3.34 2.1-4.43.2-.38.2-.7.34-.96l1.18-2.3c.86-1.67 1.98-3.85 3.29-6.09l3.29-6.4c.13-.26.46-.58.65-.96 1.05-2.05 2.63-4.8-1.34-6.85-3.72-1.9-6.18.07-7.1 1.86l-2.04 3.97c-.66.96-1.65 2.88-2.04 3.97-.99 1.6-2.3 3.84-3.09 5.38-.85 1.66-2.1 4.42-2.96 6.4-.93 2.12-2.05 4.3-3.1 6.35l-.99 1.92c-.06.13 0 .32-.07.45-8.21 15.7-9.46 18.13-10.06 19.6l-2.23 4.36c-3.12 2.6-5.97 3.41-9.17 1.77-1.15-.6-2.3-1.19-3.26-1.84-4.3-2.37-2.12-7.24-.4-11.53l-.06.12 1.45-3.14c.6-1.47 1.52-3.26 2.5-5.19 1.45-2.81 2.9-5.63 4.2-7.87l10.66-20.75c.27-.52.66-.96.79-1.22l5.13-10c.46-.89.7-5.14-2-6.52-4.35-2.23-7.02 1.09-7.5 3.6l-.33.63c-1.18 2.31-2.17 4.55-3.36 6.86l-6.38 12.42c-.26.52-.65.96-.98 1.6l-1.97 3.85c-.92 1.47-2.76 4.73-4.27 7.68-1.9 3.72-4.22 8.52-5.2 10.76l-1.32 2.57c-6.26 12.8-5.42 19.07 5.58 25.69.77.4 1.48.6 2.25.99 2.56 1.31 8.1.92 10.19-1.24-1.75 7.19 4.72 9.7 6.62 6.96l4.87-9.8ZM721.24 115.23c-.36-2.53-2.74-3.64-4.28-4.7-1.86-1.11-3.95-2.38-6.07-2.61-2.28.52-3.68 5.85-3.68 5.85l-1.02 3.5c-.17.76-.38 1.83-.34 1.51l-.8 2.95.08-.12c-.14.96-.6 2.39-1.35 4.5a121.3 121.3 0 0 0-1.75 7.35l-.76 2.63-.59 1.87a22.49 22.49 0 0 0-1.59 4.84l.08-.11-.7 3.54-1.08.82-21.34 16.25-3.88 3.1c-3.56 2.62-8.5 4.46-.67 9.85 2.12 2 4.38 3.03 6.28 1.54 1.49-.38 2.47-1.8 3.72-2.86 5.5-4.43 11.3-9.53 14.44-11.56-.55 2.07-2.4 7.79-2.8 10.14l-.86 4.3.25-.36-1.25 5.62c-.68 2.5-2.34 6.95 7.18 10.9 5.16 2.67 5.3-3.88 6.9-7.49-.17-1-.17-1-.26-.88l.1-.64.5-2.27c.27-1.4.57-2.59.63-3.94l.16-.24v-.52l.14-.44c.98-4.22 2-8.76 2.64-13.22.48-2.99 2.34-6.95 2.87-10.26l.76-.35c2.06-1.2 2.91-2.19 3.92-2.9l16.49-12.24 5.62-4.35c5.54-4.75 2.81-6.63.92-7.93-2.21-1.88-4.7-5.87-8.92-1.78l-4.17 3.25.09-.12c-.73.55-1.82 1.37-2.6 2.24 0 0-3.02 2.11-4.28 3.17l-1.7 1.45-4.58 4.37c-.06-.92 2.41-6.04 6.51-18.08l1.04-5.57Z"/>
</svg>
