<?xml version="1.0" encoding="UTF-8" standalone="no"?><!DOCTYPE svg PUBLIC "-//W3C//DTD SVG 1.1//EN" "http://www.w3.org/Graphics/SVG/1.1/DTD/svg11.dtd"><svg width="100%" height="100%" viewBox="0 0 747 197" version="1.1" xmlns="http://www.w3.org/2000/svg" xmlns:xlink="http://www.w3.org/1999/xlink" xml:space="preserve" xmlns:serif="http://www.serif.com/" style="fill-rule:evenodd;clip-rule:evenodd;stroke-linejoin:round;stroke-miterlimit:2;font-family:TTCottons;font-weight:500;font-size:144px;fill:currentColor"><rect id="Artboard1" x="0" y="0" width="746.509" height="196.305" style="fill:none;"/><g><g><g transform="matrix(0.840494,-0.54182,0.54182,0.840494,-96.7631,58.1388)"><text x="50.363px" y="193.415px" style="font-weight:700;">O</text></g></g><g><g transform="matrix(0.890577,-0.454832,0.454832,0.890577,-64.2969,61.9987)"><text x="96.705px" y="164.629px">l</text></g></g><g><g transform="matrix(0.914759,-0.403999,0.403999,0.914759,-52.5174,60.2059)"><text x="116.415px" y="154.556px">i</text></g></g><g><g transform="matrix(0.941491,-0.337038,0.337038,0.941491,-40.4836,55.2671)"><text x="138.94px" y="144.236px">v</text></g></g><g><g transform="matrix(0.961501,-0.274801,0.274801,0.961501,-28.5547,54.8768)"><text x="181.575px" y="129.349px">i</text></g></g><g><g transform="matrix(0.977003,-0.213224,0.213224,0.977003,-21.3121,46.629)"><text x="205.515px" y="122.117px">e</text></g></g><g><g transform="matrix(0.990462,-0.137788,0.137788,0.990462,-12.9507,36.07)"><text x="254.055px" y="111.577px">r</text></g></g><g><g transform="matrix(0.998709,-0.0507965,0.0507965,0.998709,-4.87702,15.9733)"><text x="311.815px" y="103.936px" style="font-weight:700;">C</text></g></g><g><g transform="matrix(0.999902,0.0139964,-0.0139964,0.999902,1.45519,-5.0373)"><text x="360.61px" y="101.445px">a</text></g></g><g><g transform="matrix(0.99644,0.0843074,-0.0843074,0.99644,10.0728,-34.1795)"><text x="409.73px" y="102.175px">r</text></g></g><g><g transform="matrix(0.989283,0.146014,-0.146014,0.989283,20.2182,-64.6835)"><text x="450.731px" y="105.384px">d</text></g></g><g><g transform="matrix(0.978798,0.20483,-0.20483,0.978798,33.7983,-100.184)"><text x="500.82px" y="113.166px">i</text></g></g><g><g transform="matrix(0.96371,0.266951,-0.266951,0.96371,50.5163,-135.941)"><text x="525.255px" y="117.83px">n</text></g></g><g><g transform="matrix(0.935613,0.353027,-0.353027,0.935613,83.3228,-194.17)"><text x="573.97px" y="131.34px">a</text></g></g><g><g transform="matrix(0.889587,0.456765,-0.456765,0.889587,136.337,-266.791)"><text x="620.01px" y="148.61px">u</text></g></g><g><g transform="matrix(0.82342,0.567432,-0.567432,0.82342,215.286,-347.315)"><text x="665.685px" y="172.249px" style="font-weight:700;">x</text></g></g></g></svg>