<svg xmlns="http://www.w3.org/2000/svg" viewBox="0 0 800 78.96" preserveAspectRatio="xMidYMin slice"><path class="drop-shadow" d="M0 34.48a10 10 0 002.89.27c2.85 0 4.73 1.93 6 1.87a8.06 8.06 0 003.15-1.37 6.67 6.67 0 012.8-4.14c2.49-1.81 5.4.47 6.49 1.21L26 35.36c.87.59 4.89-.19 4.89-.19l2.4 1.63 2.63-.13 6.74-4.34a17.88 17.88 0 013.21-.05 12 12 0 003.66-.71l.69-1.09 1.39-.65C53 29.18 54 31.48 54 31.48l2.4 1.62 1.09.74c1.09.74 5.19-.62 5.19-.62l4.24-.63L69 29.48l7.36 2.75 12.87-3.06a33.14 33.14 0 015.18-.62c1.53.08 6.36-1.42 7.31-1.41s4.48-3.33 5.65-4.13 4.25-2.53 6.29-2.73 5.89 4 6.55 4.42 6 .91 6 .91l2.18 1.48 2.27-1s2.5-2.76 3.81-2.82 1.73-1.08 3.53-1.79 1.81 1.55 3 2.07a31.16 31.16 0 007.36 1.8c4.3.68 4.09-.41 4.09-.41l.89-1.31 1-1.53 2.41-.28c2.41-.27 6.78.78 6.78.78a31.38 31.38 0 014.83-1.51 32.34 32.34 0 013.51-.48c3.51-.49 3.58-.13 3.58-.13s3-3 4.47-3.33a24.64 24.64 0 017.52-.31c4.23.31 5.2-1.58 9.07-2.14s8.16 2 12.32 2 3.72.61 3.72.61l4.61-1.65s7 4.71 7.63 5.16 2 .37 4.53-.12 2.56-.49 3.21-.05 3.29-.64 4.24-.63 4.39-.85 6.87-.76a13.45 13.45 0 004.09-.41l4.8 3.24c1.09.74 3.06.16 5-.77s1.08 1.68 2.4 1.62a.93.93 0 00.88-1.31l1.47-1.23a10.71 10.71 0 013.72-1.81l1.09.74 2.68 1.67a30.24 30.24 0 004.15 2.8c1.45.67 0 0 .95 0s1.17-.8 2.27-1 1.68-1.09 3-2.1 1.09.74 1.09.74a28.37 28.37 0 013.5.46c2 .38 3.14.53 3.14.53l2-.21c2.05-.2 2.13-.79 2.13-.79l2-.2 1.48-2.18a7.4 7.4 0 014-1.15 46.55 46.55 0 018.09.71 24.54 24.54 0 008.84-.38 51.32 51.32 0 009.21-2.35c3-1.15 2.79-1.3 5.63-1.28s12.83 2.64 13.93 2.43 4.46-1.43 4.46-1.43l1.53 1 1.1-.21a7.35 7.35 0 013.57-.13c1 .37 2.64-1.08 2.64-1.08l3.07-.78a16.59 16.59 0 005 .54c3.22-.05 3.28 1.27 5.62.62s3.49 2.36 3.49 2.36a10.69 10.69 0 003.14.53 19.41 19.41 0 004.75-.92c2.7-.71 2.26 0 3.79 1s1.77-2.62 1.77-2.62l5.24-2.43 3.11.1a29.63 29.63 0 007.5 2.53 35.32 35.32 0 006.58-.32 19.74 19.74 0 012.34-.64c1.09-.21 4.3.68 6.56 1.57s2.41-.27 4 .17a2.86 2.86 0 002.71-.71 9.57 9.57 0 015.11-1c3.43.1 2.93-.56 5.55-.69s1.25-1.38 4-2.68 2.12-1.74 5.06-4.2 1.53 1 2.84 1.92 11.71 5.69 12.51 5.92a8.14 8.14 0 012.18 1.47l1.33-.55a13.47 13.47 0 003.37-2.63 2.67 2.67 0 012-.57l1.13-1.69s7.16-.72 8.81-1.76 6.1-1 6.1-1 .67-2.4 1.32-2 3.81-.92 3.81-.92l1.24-.44c1.24-.43 6.11 4.13 6.11 4.13a6 6 0 003.35.68 7.53 7.53 0 014 1.12s5.62.62 6.56.63 2-.57 2.63-.13l5.24 3.54c1.52 1 0 0 1.38.3s3.21-.06 5.63-.33a6.64 6.64 0 014.08.53c1 .38 3.43.1 6.34.48s2.35-.64 2.35-.64a47.11 47.11 0 014.39-1.8c1.61-.5 8.18-.82 8.18-.82l5.91 1.13 7.44.27h.95c1 0 2.41-.27 4.68-.33a10 10 0 014.59 1.2 37.84 37.84 0 014.59 3.16l3-.2c3-.2 2.13-1.74 6.73-2.44s4.23.32 7.66 1.36a24.21 24.21 0 016.41 2.75c1.09.73 6.06-1 6.06-1a54.08 54.08 0 006.92 1.53 12.82 12.82 0 002.84 0s1.76-.72 2.85 0l1.09.74 6.41 2.74 6.32 4.28c.87.59 3.07.16 3.07.16l4.14 2.8c.66.45 1.89 1 4.59 1.2s1.46.67 3.79 1 4.59 2.15 6.42 1.8 3.26 3.16 5.67 3.83 3.63 2.14 5.75 1.35 3.89-2.46 5.72-3.76 1.75.23 4.16 0 6.59 4.45 6.59 4.45l7.53 2.87 1.53 1 2.18 1.48c1.31.88 0 0 2.12-.79s1.09.73 1.09.73l2.62 1.77 5 .18 1.1-.21c1.09-.21 4.36 3 5 3.39l1.31.88a11.6 11.6 0 004.38.1 50.66 50.66 0 005-1.35l1.75 1.18 3.06.16a19.9 19.9 0 016.42 1.8l2.61 1.76 3.36-.27 2.18 1.48 2.2-.43c2.19-.42 1.59 1.4 3.49 2.36a11.73 11.73 0 012.61 1.77l2.84 1.92a7.26 7.26 0 002.85-.93 9.63 9.63 0 013.8-.93l1.2-.37c1.21-.36.91 1.48 3.71 2.51s2.51 1.92 4.84 3.18.73.81 2.4 1.62 4.72-2.28 4.72-2.28a17.11 17.11 0 004.13 1.83c2.62.82 7.56 4.79 7.56 4.79l1.44 2.57a9 9 0 005.87 4.1V0H0z" style="fill:currentcolor"/></svg>